<svg width="111" height="29" viewBox="0 0 111 29" fill="none" xmlns="http://www.w3.org/2000/svg">
<path d="M7.42188 20.25V7.875C7.42188 7.875 9.97917 7.875 15.0938 7.875C16.3333 7.875 17.3958 8.48438 18.2812 9.70312C19.1771 10.9115 19.625 12.3646 19.625 14.0625C19.625 15.7708 19.1771 17.2292 18.2812 18.4375C17.3958 19.6458 16.3333 20.25 15.0938 20.25H7.42188ZM8.54688 19.125H15.0938C16.0208 19.125 16.8125 18.6302 17.4688 17.6406C18.1354 16.651 18.4688 15.4583 18.4688 14.0625C18.4688 12.6562 18.1354 11.4635 17.4688 10.4844C16.8125 9.49479 16.0208 9 15.0938 9H8.54688V19.125ZM6.29688 21.375H15.0938C16.6458 21.375 17.9792 20.6615 19.0938 19.2344C20.2188 17.7969 20.7812 16.0729 20.7812 14.0625C20.7812 12.7396 20.5208 11.5156 20 10.3906C19.4896 9.26562 18.7969 8.38021 17.9219 7.73438C17.0573 7.07812 16.1146 6.75 15.0938 6.75H6.29688V21.375ZM5.17188 22.5V5.625H15.0938C16.3125 5.625 17.4479 6 18.5 6.75C19.5521 7.5 20.3854 8.52604 21 9.82812C21.625 11.1198 21.9375 12.5312 21.9375 14.0625C21.9375 15.5833 21.625 16.9948 21 18.2969C20.3854 19.599 19.5521 20.625 18.5 21.375C17.4479 22.125 16.3125 22.5 15.0938 22.5H5.17188ZM4.04688 23.625H15.0938C16.5208 23.625 17.8438 23.1979 19.0625 22.3438C20.2917 21.4896 21.2708 20.3281 22 18.8594C22.7292 17.3906 23.0938 15.7917 23.0938 14.0625C23.0938 12.3438 22.7292 10.75 22 9.28125C21.2708 7.80208 20.2917 6.63542 19.0625 5.78125C17.8333 4.92708 16.5104 4.5 15.0938 4.5H4.04688V23.625ZM2.92188 24.75V3.375H15.0938C16.7188 3.375 18.2344 3.85417 19.6406 4.8125C21.0469 5.76042 22.1667 7.05729 23 8.70312C23.8333 10.349 24.25 12.1354 24.25 14.0625C24.25 15.9896 23.8333 17.776 23 19.4219C22.1667 21.0677 21.0469 22.3698 19.6406 23.3281C18.2344 24.276 16.7188 24.75 15.0938 24.75H2.92188ZM1.79688 25.875H15.0938C16.4583 25.875 17.776 25.5625 19.0469 24.9375C20.3177 24.3125 21.4167 23.474 22.3438 22.4219C23.2708 21.3698 24.0104 20.1146 24.5625 18.6562C25.125 17.1875 25.4062 15.6562 25.4062 14.0625C25.4062 12.4688 25.125 10.9427 24.5625 9.48438C24.0104 8.02604 23.2708 6.77083 22.3438 5.71875C21.4167 4.65625 20.3177 3.8125 19.0469 3.1875C17.776 2.5625 16.4583 2.25 15.0938 2.25H1.79688V25.875ZM15.0938 27H0.671875V1.125H15.0938C17.125 1.125 19.0208 1.70312 20.7812 2.85938C22.5417 4.01562 23.9427 5.58854 24.9844 7.57812C26.0365 9.56771 26.5625 11.7292 26.5625 14.0625C26.5625 15.8125 26.25 17.4896 25.625 19.0938C25.0104 20.6875 24.1875 22.0625 23.1562 23.2188C22.125 24.375 20.901 25.2969 19.4844 25.9844C18.0781 26.6615 16.6146 27 15.0938 27ZM34.6719 27H33.5469V1.125H34.6719V27ZM32.4219 27H31.2969V1.125H32.4219V27ZM30.1719 27H29.0469V1.125H30.1719V27ZM36.9219 21.375H48.8906V22.5H36.9219V23.625H48.8906V24.75H36.9219V25.875H48.8906V27H35.7969V1.125H48.8906V2.25H36.9219V3.375H48.8906V4.5H36.9219V5.625H48.8906V6.75H36.9219V11.25H43.0625V12.375H36.9219V13.5H43.0625V14.625H36.9219V15.75H43.0625V16.875H36.9219V21.375ZM70.0469 14.5469L68.9219 12.6875V1.125H70.0469V14.5469ZM72.2969 18.2344L71.1719 16.3438V1.125H72.2969V18.2344ZM74.5469 21.9688L73.4219 20.0625V1.125H74.5469V21.9688ZM58.4219 13.5781L59.5469 15.4375V27H58.4219V13.5781ZM56.1719 9.89062L57.2969 11.7812V27H56.1719V9.89062ZM53.9219 6.15625L55.0469 8.0625V27H53.9219V6.15625ZM54.3125 1.125H55.625L71.5312 27H70.2188L54.3125 1.125ZM56.9688 1.125H58.2969L74.1875 27H72.8438L56.9688 1.125ZM59.6094 1.125H60.9219L75.6719 25.1719V1.125H76.7969V27C76.7969 27 76.3542 27 75.4688 27L59.6094 1.125ZM52.7969 2.95312V27H51.6719V1.125C51.6719 1.125 52.1198 1.125 53.0156 1.125L68.875 27H67.5781L52.7969 2.95312ZM86.5156 1.125H87.6406V27H86.5156V1.125ZM84.2656 1.125H85.3906V27H84.2656V1.125ZM82.0156 1.125H83.1406V27H82.0156V1.125ZM79.7656 1.125H80.8906V27H79.7656V1.125ZM101.062 11.25H99.1719C98.3698 11.25 97.7917 11.0469 97.4375 10.6406C97.0833 10.224 96.9062 9.67708 96.9062 9C96.9062 7.5 98.026 6.75 100.266 6.75C102.37 6.75 103.953 7.0625 105.016 7.6875L104.109 8.375C103.38 8.04167 102.099 7.875 100.266 7.875C99.3698 7.875 98.7656 7.97396 98.4531 8.17188C98.151 8.36979 98 8.64583 98 9C98 9.35417 98.0833 9.63021 98.25 9.82812C98.4167 10.026 98.724 10.125 99.1719 10.125H101.109C102.516 10.125 103.781 10.3646 104.906 10.8438C106.042 11.3229 106.974 11.9792 107.703 12.8125C108.432 13.6354 108.99 14.5885 109.375 15.6719C109.76 16.7448 109.953 17.8958 109.953 19.125C109.953 20.125 109.812 21.0729 109.531 21.9688C109.25 22.8646 108.823 23.6875 108.25 24.4375C107.688 25.1875 107.005 25.8385 106.203 26.3906C105.411 26.9323 104.464 27.3542 103.359 27.6562C102.266 27.9688 101.078 28.125 99.7969 28.125C97.7865 28.125 95.901 27.8177 94.1406 27.2031C92.3906 26.599 90.9323 25.75 89.7656 24.6562L90.6719 23.9844C91.7344 24.9427 93.0625 25.6875 94.6562 26.2188C96.2604 26.7396 97.974 27 99.7969 27C101.224 27 102.51 26.7969 103.656 26.3906C104.812 25.974 105.76 25.4062 106.5 24.6875C107.25 23.9688 107.823 23.1354 108.219 22.1875C108.625 21.2396 108.828 20.2188 108.828 19.125C108.828 17.6771 108.536 16.3698 107.953 15.2031C107.37 14.026 106.479 13.0729 105.281 12.3438C104.094 11.6146 102.688 11.25 101.062 11.25ZM99.1719 12.375H100.953C103.068 12.375 104.719 13.0208 105.906 14.3125C107.104 15.6042 107.703 17.2083 107.703 19.125C107.703 21.0729 107.01 22.6875 105.625 23.9688C104.24 25.2396 102.297 25.875 99.7969 25.875C98.1302 25.875 96.5729 25.6458 95.125 25.1875C93.6771 24.7292 92.474 24.0833 91.5156 23.25L92.3906 22.5469C93.2448 23.2448 94.3177 23.7865 95.6094 24.1719C96.9115 24.5573 98.3073 24.75 99.7969 24.75C101.995 24.75 103.672 24.224 104.828 23.1719C105.995 22.1198 106.578 20.7708 106.578 19.125C106.578 17.5 106.089 16.1562 105.109 15.0938C104.141 14.0312 102.75 13.5 100.938 13.5H99.1719C97.651 13.5 96.5104 13.0833 95.75 12.25C94.9896 11.4167 94.6094 10.3333 94.6094 9C94.6094 7.66667 95.0781 6.58333 96.0156 5.75C96.9635 4.91667 98.3802 4.5 100.266 4.5C101.589 4.5 102.818 4.65625 103.953 4.96875C105.089 5.27083 106.026 5.70833 106.766 6.28125L105.875 6.96875C104.573 6.07292 102.703 5.625 100.266 5.625C98.6927 5.625 97.5417 5.9375 96.8125 6.5625C96.0938 7.17708 95.7344 7.98958 95.7344 9C95.7344 10.0208 96 10.8385 96.5312 11.4531C97.0729 12.0677 97.9531 12.375 99.1719 12.375ZM99.1719 14.625H100.891C102.411 14.625 103.552 15.0469 104.312 15.8906C105.073 16.7344 105.453 17.8125 105.453 19.125C105.453 20.4583 104.979 21.5417 104.031 22.375C103.094 23.2083 101.682 23.625 99.7969 23.625C98.474 23.625 97.2396 23.474 96.0938 23.1719C94.9583 22.8594 94.0208 22.4167 93.2812 21.8438L94.1719 21.1562C95.474 22.0521 97.349 22.5 99.7969 22.5C101.37 22.5 102.516 22.1927 103.234 21.5781C103.964 20.9531 104.328 20.1354 104.328 19.125C104.328 18.1146 104.057 17.3021 103.516 16.6875C102.974 16.0625 102.094 15.75 100.875 15.75H99.1719C97.0365 15.75 95.3646 15.1146 94.1562 13.8438C92.9583 12.5625 92.3594 10.9479 92.3594 9C92.3594 7.05208 93.0521 5.44271 94.4375 4.17188C95.8229 2.89062 97.7656 2.25 100.266 2.25C101.932 2.25 103.484 2.47917 104.922 2.9375C106.37 3.39583 107.573 4.04167 108.531 4.875L107.656 5.57812C106.802 4.88021 105.729 4.33854 104.438 3.95312C103.146 3.56771 101.755 3.375 100.266 3.375C98.0677 3.375 96.3854 3.90104 95.2188 4.95312C94.0625 6.00521 93.4844 7.35417 93.4844 9C93.4844 10.6354 93.974 11.9844 94.9531 13.0469C95.9323 14.099 97.3385 14.625 99.1719 14.625ZM99.1719 16.875H100.891C101.693 16.875 102.271 17.0833 102.625 17.5C102.979 17.9167 103.156 18.4583 103.156 19.125C103.156 20.625 102.036 21.375 99.7969 21.375C97.6823 21.375 96.0938 21.0625 95.0312 20.4375L95.9375 19.75C96.6667 20.0833 97.9531 20.25 99.7969 20.25C100.693 20.25 101.292 20.151 101.594 19.9531C101.906 19.7552 102.062 19.4792 102.062 19.125C102.062 18.7812 101.974 18.5104 101.797 18.3125C101.63 18.1042 101.318 18 100.859 18H99.1719C97.7344 18 96.4323 17.7656 95.2656 17.2969C94.1094 16.8281 93.1562 16.1823 92.4062 15.3594C91.6667 14.5365 91.099 13.5833 90.7031 12.5C90.3073 11.4167 90.1094 10.25 90.1094 9C90.1094 8 90.25 7.05208 90.5312 6.15625C90.8125 5.26042 91.2344 4.4375 91.7969 3.6875C92.3698 2.9375 93.0521 2.29167 93.8438 1.75C94.6458 1.19792 95.5938 0.770833 96.6875 0.46875C97.7917 0.15625 98.9844 0 100.266 0C102.276 0 104.156 0.307292 105.906 0.921875C107.656 1.52604 109.115 2.375 110.281 3.46875L109.375 4.14062C108.312 3.18229 106.984 2.44271 105.391 1.92188C103.797 1.39062 102.089 1.125 100.266 1.125C98.8385 1.125 97.5469 1.33333 96.3906 1.75C95.2448 2.15625 94.2969 2.71875 93.5469 3.4375C92.8073 4.15625 92.2344 4.98958 91.8281 5.9375C91.4323 6.88542 91.2344 7.90625 91.2344 9C91.2344 10.4688 91.5312 11.7917 92.125 12.9688C92.7188 14.1458 93.625 15.0938 94.8438 15.8125C96.0625 16.5208 97.5052 16.875 99.1719 16.875Z" fill="#1F9D96"/>
</svg>
