<svg width="25" height="24" viewBox="0 0 25 24" fill="none" xmlns="http://www.w3.org/2000/svg">
<path d="M5.675 3.24979C5.67467 3.91283 5.41096 4.54858 4.94188 5.01719C4.47281 5.48579 3.83679 5.74887 3.17375 5.74854C2.51071 5.7482 1.87496 5.48449 1.40635 5.01542C0.937742 4.54634 0.674668 3.91033 0.675 3.24729C0.675331 2.58424 0.939041 1.94849 1.40812 1.47988C1.87719 1.01128 2.51321 0.748204 3.17625 0.748535C3.83929 0.748867 4.47504 1.01258 4.94365 1.48165C5.41226 1.95073 5.67533 2.58674 5.675 3.24979ZM5.75 7.59978H0.749999V23.2498H5.75V7.59978ZM13.65 7.59978H8.675V23.2498H13.6V15.0373C13.6 10.4623 19.5625 10.0373 19.5625 15.0373V23.2498H24.5V13.3373C24.5 5.62479 15.675 5.91229 13.6 9.69979L13.65 7.59978Z" fill="white"/>
</svg>
