<svg width="29" height="23" viewBox="0 0 29 23" fill="none" xmlns="http://www.w3.org/2000/svg">
<path d="M0.0666249 4.59372C0.118968 3.39921 0.630339 2.271 1.49413 1.44429C2.35792 0.617577 3.50747 0.156167 4.70312 0.15625H24.2969C25.4925 0.156167 26.6421 0.617577 27.5059 1.44429C28.3697 2.271 28.881 3.39921 28.9334 4.59372L27.4113 5.43934L14.5 12.391L1.58875 5.43934L0.0666249 4.59372ZM0.0625 6.95013V18.2031C0.0625 19.4339 0.551422 20.6143 1.42171 21.4845C2.29199 22.3548 3.47235 22.8438 4.70312 22.8438H24.2969C25.5276 22.8438 26.708 22.3548 27.5783 21.4845C28.4486 20.6143 28.9375 19.4339 28.9375 18.2031V6.95013L28.3951 7.25228L14.9888 14.471C14.8386 14.5519 14.6706 14.5942 14.5 14.5942C14.3294 14.5942 14.1614 14.5519 14.0112 14.471L0.592562 7.24506L0.0625 6.95013Z" fill="white"/>
</svg>
