<svg width="100" height="90" viewBox="0 0 100 90" fill="none" xmlns="http://www.w3.org/2000/svg">
<path d="M89.3333 0.75H10.6667C8.0587 0.75 5.55756 1.78601 3.71345 3.63012C1.86934 5.47422 0.833332 7.97537 0.833332 10.5833V30.25C0.833332 32.858 1.86934 35.3591 3.71345 37.2032C5.55756 39.0473 8.0587 40.0833 10.6667 40.0833H89.3333C91.9413 40.0833 94.4424 39.0473 96.2866 37.2032C98.1307 35.3591 99.1667 32.858 99.1667 30.25V10.5833C99.1667 7.97537 98.1307 5.47422 96.2866 3.63012C94.4424 1.78601 91.9413 0.75 89.3333 0.75ZM10.6667 30.25V10.5833H89.3333V30.25H10.6667ZM89.3333 49.9167H10.6667C8.0587 49.9167 5.55756 50.9527 3.71345 52.7968C1.86934 54.6409 0.833332 57.142 0.833332 59.75V79.4167C0.833332 82.0246 1.86934 84.5258 3.71345 86.3699C5.55756 88.214 8.0587 89.25 10.6667 89.25H89.3333C91.9413 89.25 94.4424 88.214 96.2866 86.3699C98.1307 84.5258 99.1667 82.0246 99.1667 79.4167V59.75C99.1667 57.142 98.1307 54.6409 96.2866 52.7968C94.4424 50.9527 91.9413 49.9167 89.3333 49.9167ZM10.6667 79.4167V59.75H89.3333V79.4167H10.6667Z" fill="#1F9D96"/>
</svg>
