<svg width="26" height="25" viewBox="0 0 26 25" fill="none" xmlns="http://www.w3.org/2000/svg">
<path d="M25.8908 18.8852C25.6609 20.579 24.8031 22.1338 23.4775 23.2591C22.152 24.3844 20.4493 25.0033 18.6875 25.0002C8.45236 25.0002 0.125012 16.9252 0.125012 7.00024C0.121853 5.29185 0.760116 3.64076 1.92059 2.35535C3.08106 1.06995 4.68439 0.238119 6.43111 0.0152353C6.87281 -0.0370635 7.32011 0.0505627 7.70623 0.265033C8.09235 0.479504 8.39659 0.809316 8.57353 1.20524L11.296 7.09899V7.11399C11.4315 7.41705 11.4874 7.74793 11.4589 8.07708C11.4303 8.40623 11.3181 8.72339 11.1323 9.00024C11.1091 9.03399 11.0846 9.06524 11.0588 9.09649L8.37501 12.1815C9.34052 14.084 11.3927 16.0565 13.3804 16.9952L16.518 14.4065C16.5488 14.3814 16.5811 14.358 16.6147 14.3365C16.9 14.152 17.2282 14.0394 17.5696 14.0088C17.911 13.9783 18.2549 14.0307 18.5702 14.1615L18.587 14.169L24.6597 16.8077C25.0688 16.9787 25.4097 17.2735 25.6316 17.6479C25.8535 18.0224 25.9444 18.4565 25.8908 18.8852Z" fill="white"/>
</svg>
