<svg width="108" height="88" viewBox="0 0 108 88" fill="none" xmlns="http://www.w3.org/2000/svg">
<path fill-rule="evenodd" clip-rule="evenodd" d="M63.6666 19.8333C62.3848 19.8333 61.1554 20.3425 60.249 21.249C59.3425 22.1554 58.8333 23.3848 58.8333 24.6666V63.3333C58.8333 64.6152 59.3425 65.8446 60.249 66.751C61.1554 67.6574 62.3848 68.1666 63.6666 68.1666H83C84.2819 68.1666 85.5112 67.6574 86.4177 66.751C87.3241 65.8446 87.8333 64.6152 87.8333 63.3333V24.6666C87.8333 23.3848 87.3241 22.1554 86.4177 21.249C85.5112 20.3425 84.2819 19.8333 83 19.8333H63.6666ZM78.1666 29.5H68.5V58.5H78.1666V29.5Z" fill="#1F9D96"/>
<path d="M25 19.8333C23.7181 19.8333 22.4887 20.3425 21.5823 21.249C20.6759 22.1554 20.1666 23.3848 20.1666 24.6666C20.1666 25.9485 20.6759 27.1779 21.5823 28.0843C22.4887 28.9908 23.7181 29.5 25 29.5H44.3333C45.6152 29.5 46.8445 28.9908 47.751 28.0843C48.6574 27.1779 49.1666 25.9485 49.1666 24.6666C49.1666 23.3848 48.6574 22.1554 47.751 21.249C46.8445 20.3425 45.6152 19.8333 44.3333 19.8333H25ZM25 39.1666C23.7181 39.1666 22.4887 39.6759 21.5823 40.5823C20.6759 41.4887 20.1666 42.7181 20.1666 44C20.1666 45.2819 20.6759 46.5112 21.5823 47.4177C22.4887 48.3241 23.7181 48.8333 25 48.8333H44.3333C45.6152 48.8333 46.8445 48.3241 47.751 47.4177C48.6574 46.5112 49.1666 45.2819 49.1666 44C49.1666 42.7181 48.6574 41.4887 47.751 40.5823C46.8445 39.6759 45.6152 39.1666 44.3333 39.1666H25ZM20.1666 63.3333C20.1666 62.0514 20.6759 60.8221 21.5823 59.9156C22.4887 59.0092 23.7181 58.5 25 58.5H44.3333C45.6152 58.5 46.8445 59.0092 47.751 59.9156C48.6574 60.8221 49.1666 62.0514 49.1666 63.3333C49.1666 64.6152 48.6574 65.8446 47.751 66.751C46.8445 67.6574 45.6152 68.1666 44.3333 68.1666H25C23.7181 68.1666 22.4887 67.6574 21.5823 66.751C20.6759 65.8446 20.1666 64.6152 20.1666 63.3333Z" fill="#1F9D96"/>
<path fill-rule="evenodd" clip-rule="evenodd" d="M15.3333 0.5C11.4877 0.5 7.79954 2.02767 5.08026 4.74695C2.36099 7.46623 0.833313 11.1544 0.833313 15V73C0.833313 76.8456 2.36099 80.5338 5.08026 83.2531C7.79954 85.9723 11.4877 87.5 15.3333 87.5H92.6666C96.5123 87.5 100.2 85.9723 102.92 83.2531C105.639 80.5338 107.167 76.8456 107.167 73V15C107.167 11.1544 105.639 7.46623 102.92 4.74695C100.2 2.02767 96.5123 0.5 92.6666 0.5H15.3333ZM92.6666 10.1667H15.3333C14.0514 10.1667 12.8221 10.6759 11.9156 11.5823C11.0092 12.4887 10.5 13.7181 10.5 15V73C10.5 74.2819 11.0092 75.5113 11.9156 76.4177C12.8221 77.3241 14.0514 77.8333 15.3333 77.8333H92.6666C93.9485 77.8333 95.1779 77.3241 96.0843 76.4177C96.9908 75.5113 97.5 74.2819 97.5 73V15C97.5 13.7181 96.9908 12.4887 96.0843 11.5823C95.1779 10.6759 93.9485 10.1667 92.6666 10.1667Z" fill="#1F9D96"/>
</svg>
