<svg width="29" height="28" viewBox="0 0 29 28" fill="none" xmlns="http://www.w3.org/2000/svg">
<path d="M24.1938 4.54658C22.9332 3.31182 21.4316 2.33281 19.7768 1.66665C18.1219 1.0005 16.3468 0.66053 14.555 0.666583C7.04751 0.666583 0.928756 6.59992 0.928756 13.8799C0.928756 16.2132 1.56126 18.4799 2.74376 20.4799L0.818756 27.3333L8.03751 25.4933C10.0313 26.5466 12.2725 27.1066 14.555 27.1066C22.0625 27.1066 28.1813 21.1733 28.1813 13.8932C28.1813 10.3599 26.765 7.03992 24.1938 4.54658ZM14.555 24.8666C12.52 24.8666 10.5263 24.3333 8.78001 23.3333L8.36751 23.0933L4.07751 24.1866L5.21876 20.1333L4.94376 19.7199C3.81316 17.9692 3.21282 15.9456 3.21126 13.8799C3.21126 7.82658 8.29876 2.89325 14.5413 2.89325C17.5663 2.89325 20.4125 4.03992 22.5438 6.11992C23.599 7.13854 24.4353 8.35013 25.0042 9.68448C25.573 11.0188 25.8631 12.4494 25.8575 13.8932C25.885 19.9466 20.7975 24.8666 14.555 24.8666ZM20.77 16.6532C20.4263 16.4932 18.7488 15.6933 18.4463 15.5732C18.13 15.4666 17.91 15.4132 17.6763 15.7332C17.4425 16.0666 16.7963 16.8132 16.6038 17.0266C16.4113 17.2533 16.205 17.2799 15.8613 17.1066C15.5175 16.9466 14.4175 16.5866 13.125 15.4666C12.1075 14.5866 11.4338 13.5066 11.2275 13.1733C11.035 12.8399 11.2 12.6666 11.3788 12.4932C11.53 12.3466 11.7225 12.1066 11.8875 11.9199C12.0525 11.7332 12.1213 11.5866 12.2313 11.3732C12.3413 11.1466 12.2863 10.9599 12.2038 10.7999C12.1213 10.6399 11.4338 9.01325 11.1588 8.34658C10.8838 7.70658 10.595 7.78658 10.3888 7.77325H9.72876C9.49501 7.77325 9.13751 7.85325 8.82126 8.18658C8.51876 8.51992 7.63876 9.31992 7.63876 10.9466C7.63876 12.5733 8.86251 14.1466 9.02751 14.3599C9.19251 14.5866 11.4338 17.9199 14.8438 19.3466C15.655 19.6933 16.2875 19.8933 16.7825 20.0399C17.5938 20.2933 18.3363 20.2532 18.9275 20.1732C19.5875 20.0799 20.9488 19.3732 21.2238 18.5999C21.5125 17.8266 21.5125 17.1733 21.4163 17.0266C21.32 16.8799 21.1138 16.8132 20.77 16.6532Z" fill="white"/>
</svg>
