<svg width="116" height="116" viewBox="0 0 116 116" fill="none" xmlns="http://www.w3.org/2000/svg">
<path fill-rule="evenodd" clip-rule="evenodd" d="M67.6666 33.8333C66.3848 33.8333 65.1554 34.3425 64.249 35.249C63.3425 36.1554 62.8333 37.3848 62.8333 38.6666V77.3333C62.8333 78.6152 63.3425 79.8446 64.249 80.751C65.1554 81.6574 66.3848 82.1666 67.6666 82.1666H87C88.2819 82.1666 89.5112 81.6574 90.4177 80.751C91.3241 79.8446 91.8333 78.6152 91.8333 77.3333V38.6666C91.8333 37.3848 91.3241 36.1554 90.4177 35.249C89.5112 34.3425 88.2819 33.8333 87 33.8333H67.6666ZM82.1666 43.5H72.5V72.5H82.1666V43.5Z" fill="#1F9D96"/>
<path d="M29 33.8333C27.7181 33.8333 26.4887 34.3425 25.5823 35.249C24.6759 36.1554 24.1666 37.3848 24.1666 38.6666C24.1666 39.9485 24.6759 41.1779 25.5823 42.0843C26.4887 42.9908 27.7181 43.5 29 43.5H48.3333C49.6152 43.5 50.8445 42.9908 51.751 42.0843C52.6574 41.1779 53.1666 39.9485 53.1666 38.6666C53.1666 37.3848 52.6574 36.1554 51.751 35.249C50.8445 34.3425 49.6152 33.8333 48.3333 33.8333H29ZM29 53.1666C27.7181 53.1666 26.4887 53.6759 25.5823 54.5823C24.6759 55.4887 24.1666 56.7181 24.1666 58C24.1666 59.2819 24.6759 60.5112 25.5823 61.4177C26.4887 62.3241 27.7181 62.8333 29 62.8333H48.3333C49.6152 62.8333 50.8445 62.3241 51.751 61.4177C52.6574 60.5112 53.1666 59.2819 53.1666 58C53.1666 56.7181 52.6574 55.4887 51.751 54.5823C50.8445 53.6759 49.6152 53.1666 48.3333 53.1666H29ZM24.1666 77.3333C24.1666 76.0514 24.6759 74.8221 25.5823 73.9156C26.4887 73.0092 27.7181 72.5 29 72.5H48.3333C49.6152 72.5 50.8445 73.0092 51.751 73.9156C52.6574 74.8221 53.1666 76.0514 53.1666 77.3333C53.1666 78.6152 52.6574 79.8446 51.751 80.751C50.8445 81.6574 49.6152 82.1666 48.3333 82.1666H29C27.7181 82.1666 26.4887 81.6574 25.5823 80.751C24.6759 79.8446 24.1666 78.6152 24.1666 77.3333Z" fill="#1F9D96"/>
<path fill-rule="evenodd" clip-rule="evenodd" d="M19.3333 14.5C15.4877 14.5 11.7995 16.0277 9.08026 18.747C6.36099 21.4662 4.83331 25.1544 4.83331 29V87C4.83331 90.8456 6.36099 94.5338 9.08026 97.2531C11.7995 99.9723 15.4877 101.5 19.3333 101.5H96.6666C100.512 101.5 104.2 99.9723 106.92 97.2531C109.639 94.5338 111.167 90.8456 111.167 87V29C111.167 25.1544 109.639 21.4662 106.92 18.747C104.2 16.0277 100.512 14.5 96.6666 14.5H19.3333ZM96.6666 24.1667H19.3333C18.0514 24.1667 16.8221 24.6759 15.9156 25.5823C15.0092 26.4887 14.5 27.7181 14.5 29V87C14.5 88.2819 15.0092 89.5113 15.9156 90.4177C16.8221 91.3241 18.0514 91.8333 19.3333 91.8333H96.6666C97.9485 91.8333 99.1779 91.3241 100.084 90.4177C100.991 89.5113 101.5 88.2819 101.5 87V29C101.5 27.7181 100.991 26.4887 100.084 25.5823C99.1779 24.6759 97.9485 24.1667 96.6666 24.1667Z" fill="#1F9D96"/>
</svg>
