<svg width="96" height="26" viewBox="0 0 96 26" fill="none" xmlns="http://www.w3.org/2000/svg">
<path d="M18.8281 13.5469L17.7031 11.6875V0.125H18.8281V13.5469ZM21.0781 17.2344L19.9531 15.3438V0.125H21.0781V17.2344ZM23.3281 20.9688L22.2031 19.0625V0.125H23.3281V20.9688ZM7.20312 12.5781L8.32812 14.4375V26H7.20312V12.5781ZM4.95312 8.89062L6.07812 10.7812V26H4.95312V8.89062ZM2.70312 5.15625L3.82812 7.0625V26H2.70312V5.15625ZM3.09375 0.125H4.40625L20.3125 26H19L3.09375 0.125ZM5.75 0.125H7.07812L22.9688 26H21.625L5.75 0.125ZM8.39062 0.125H9.70312L24.4531 24.1719V0.125H25.5781V26C25.5781 26 25.1354 26 24.25 26L8.39062 0.125ZM1.57812 1.95312V26H0.453125V0.125C0.453125 0.125 0.901042 0.125 1.79688 0.125L17.6562 26H16.3594L1.57812 1.95312ZM35.2969 0.125H36.4219V26H35.2969V0.125ZM33.0469 0.125H34.1719V26H33.0469V0.125ZM30.7969 0.125H31.9219V26H30.7969V0.125ZM28.5469 0.125H29.6719V26H28.5469V0.125ZM57.7656 13.5469L56.6406 11.6875V0.125H57.7656V13.5469ZM60.0156 17.2344L58.8906 15.3438V0.125H60.0156V17.2344ZM62.2656 20.9688L61.1406 19.0625V0.125H62.2656V20.9688ZM46.1406 12.5781L47.2656 14.4375V26H46.1406V12.5781ZM43.8906 8.89062L45.0156 10.7812V26H43.8906V8.89062ZM41.6406 5.15625L42.7656 7.0625V26H41.6406V5.15625ZM42.0312 0.125H43.3438L59.25 26H57.9375L42.0312 0.125ZM44.6875 0.125H46.0156L61.9062 26H60.5625L44.6875 0.125ZM47.3281 0.125H48.6406L63.3906 24.1719V0.125H64.5156V26C64.5156 26 64.0729 26 63.1875 26L47.3281 0.125ZM40.5156 1.95312V26H39.3906V0.125C39.3906 0.125 39.8385 0.125 40.7344 0.125L56.5938 26H55.2969L40.5156 1.95312ZM78.6562 18.4062L79.1094 17.2812H82.9531L83.4062 18.4062H78.6562ZM77.7812 20.6562L78.2188 19.5312H83.8281L84.3125 20.6562H77.7812ZM76.9062 22.9062L77.3438 21.7812H84.7188L85.1875 22.9062H76.9062ZM67.7656 26H66.5469L76.7812 0.125H78L88.2188 26H87.0156L77.3906 1.64062L67.7656 26ZM77.5312 4.3125L78.1719 5.75L70.1719 26H68.9688L77.5312 4.3125ZM78.7812 7.28125L79.375 8.82812L72.6094 26H71.3906L78.7812 7.28125ZM79.9688 10.375L80.5625 11.9531L75.0156 26H73.8125L79.9688 10.375ZM95.4844 26H94.2656L84.0469 0.125H85.25L95.4844 26ZM82.8281 0.125L93.0625 26H91.8594L81.625 0.125H82.8281ZM80.4062 0.125L90.6406 26H89.4219L79.2031 0.125H80.4062Z" fill="#1F9D96"/>
</svg>
