<svg width="298" height="26" viewBox="0 0 298 26" fill="none" xmlns="http://www.w3.org/2000/svg">
<path d="M6.982 20.156C5.63 20.156 4.33 19.9393 3.082 19.506C1.85133 19.0553 0.898 18.4833 0.222 17.79L0.976 16.308C1.61733 16.932 2.47533 17.4607 3.55 17.894C4.642 18.31 5.786 18.518 6.982 18.518C8.126 18.518 9.05333 18.3793 9.764 18.102C10.492 17.8073 11.0207 17.4173 11.35 16.932C11.6967 16.4467 11.87 15.9093 11.87 15.32C11.87 14.6093 11.662 14.0373 11.246 13.604C10.8473 13.1707 10.3187 12.8327 9.66 12.59C9.00133 12.33 8.27333 12.1047 7.476 11.914C6.67867 11.7233 5.88133 11.524 5.084 11.316C4.28667 11.0907 3.55 10.796 2.874 10.432C2.21533 10.068 1.678 9.59133 1.262 9.002C0.863333 8.39533 0.664 7.60667 0.664 6.636C0.664 5.73467 0.898 4.91133 1.366 4.166C1.85133 3.40333 2.588 2.79667 3.576 2.346C4.564 1.878 5.82933 1.644 7.372 1.644C8.39467 1.644 9.40867 1.79133 10.414 2.086C11.4193 2.36333 12.286 2.75333 13.014 3.256L12.364 4.79C11.584 4.27 10.752 3.88867 9.868 3.646C9.00133 3.40333 8.16067 3.282 7.346 3.282C6.254 3.282 5.35267 3.42933 4.642 3.724C3.93133 4.01867 3.40267 4.41733 3.056 4.92C2.72667 5.40533 2.562 5.96 2.562 6.584C2.562 7.29467 2.76133 7.86667 3.16 8.3C3.576 8.73333 4.11333 9.07133 4.772 9.314C5.448 9.55667 6.18467 9.77333 6.982 9.964C7.77933 10.1547 8.568 10.3627 9.348 10.588C10.1453 10.8133 10.8733 11.108 11.532 11.472C12.208 11.8187 12.7453 12.2867 13.144 12.876C13.56 13.4653 13.768 14.2367 13.768 15.19C13.768 16.074 13.5253 16.8973 13.04 17.66C12.5547 18.4053 11.8093 19.012 10.804 19.48C9.816 19.9307 8.542 20.156 6.982 20.156ZM23.1341 20.13C21.8168 20.13 20.6294 19.8353 19.5721 19.246C18.5321 18.6393 17.7088 17.816 17.1021 16.776C16.4954 15.7187 16.1921 14.514 16.1921 13.162C16.1921 11.7927 16.4954 10.588 17.1021 9.548C17.7088 8.508 18.5321 7.69333 19.5721 7.104C20.6121 6.51467 21.7994 6.22 23.1341 6.22C24.4861 6.22 25.6821 6.51467 26.7221 7.104C27.7794 7.69333 28.6028 8.508 29.1921 9.548C29.7988 10.588 30.1021 11.7927 30.1021 13.162C30.1021 14.514 29.7988 15.7187 29.1921 16.776C28.6028 17.816 27.7794 18.6393 26.7221 19.246C25.6648 19.8353 24.4688 20.13 23.1341 20.13ZM23.1341 18.492C24.1221 18.492 24.9974 18.2753 25.7601 17.842C26.5228 17.3913 27.1208 16.7673 27.5541 15.97C28.0048 15.1553 28.2301 14.2193 28.2301 13.162C28.2301 12.0873 28.0048 11.1513 27.5541 10.354C27.1208 9.55667 26.5228 8.94133 25.7601 8.508C24.9974 8.05733 24.1308 7.832 23.1601 7.832C22.1894 7.832 21.3228 8.05733 20.5601 8.508C19.7974 8.94133 19.1908 9.55667 18.7401 10.354C18.2894 11.1513 18.0641 12.0873 18.0641 13.162C18.0641 14.2193 18.2894 15.1553 18.7401 15.97C19.1908 16.7673 19.7974 17.3913 20.5601 17.842C21.3228 18.2753 22.1808 18.492 23.1341 18.492ZM34.1829 20V4.634C34.1829 3.42067 34.5382 2.44133 35.2489 1.696C35.9595 0.950666 36.9822 0.577999 38.3169 0.577999C38.8369 0.577999 39.3395 0.647332 39.8249 0.785999C40.3102 0.924666 40.7175 1.14133 41.0469 1.436L40.4229 2.814C40.1629 2.58867 39.8595 2.424 39.5129 2.32C39.1662 2.19867 38.7935 2.138 38.3949 2.138C37.6149 2.138 37.0169 2.35467 36.6009 2.788C36.1849 3.22133 35.9769 3.86267 35.9769 4.712V6.792L36.0289 7.65V20H34.1829ZM31.7389 7.884V6.35H40.1889V7.884H31.7389ZM46.9974 20.13C45.7148 20.13 44.7268 19.7833 44.0334 19.09C43.3401 18.3967 42.9934 17.4173 42.9934 16.152V3.334H44.8394V16.048C44.8394 16.8453 45.0388 17.4607 45.4374 17.894C45.8534 18.3273 46.4428 18.544 47.2054 18.544C48.0201 18.544 48.6961 18.31 49.2334 17.842L49.8834 19.168C49.5194 19.4973 49.0774 19.74 48.5574 19.896C48.0548 20.052 47.5348 20.13 46.9974 20.13ZM40.5494 7.884V6.35H48.9994V7.884H40.5494ZM55.772 20L50.624 6.35H52.392L57.072 19.012H56.266L61.076 6.35H62.662L67.42 19.012H66.614L71.372 6.35H73.062L67.888 20H66.146L61.57 8.092H62.116L57.514 20H55.772ZM83.9893 20V16.984L83.9113 16.49V11.446C83.9113 10.2847 83.582 9.392 82.9233 8.768C82.282 8.144 81.32 7.832 80.0373 7.832C79.1533 7.832 78.3127 7.97933 77.5153 8.274C76.718 8.56867 76.042 8.95867 75.4873 9.444L74.6553 8.066C75.3487 7.47667 76.1807 7.026 77.1513 6.714C78.122 6.38467 79.1447 6.22 80.2193 6.22C81.9873 6.22 83.348 6.662 84.3013 7.546C85.272 8.41267 85.7573 9.73867 85.7573 11.524V20H83.9893ZM79.2833 20.13C78.2607 20.13 77.368 19.9653 76.6053 19.636C75.86 19.2893 75.288 18.8213 74.8893 18.232C74.4907 17.6253 74.2913 16.932 74.2913 16.152C74.2913 15.4413 74.456 14.8 74.7853 14.228C75.132 13.6387 75.6867 13.1707 76.4493 12.824C77.2293 12.46 78.2693 12.278 79.5693 12.278H84.2753V13.656H79.6213C78.304 13.656 77.3853 13.89 76.8653 14.358C76.3627 14.826 76.1113 15.4067 76.1113 16.1C76.1113 16.88 76.4147 17.504 77.0213 17.972C77.628 18.44 78.4773 18.674 79.5693 18.674C80.6093 18.674 81.502 18.44 82.2473 17.972C83.01 17.4867 83.5647 16.7933 83.9113 15.892L84.3273 17.166C83.9807 18.0673 83.374 18.7867 82.5073 19.324C81.658 19.8613 80.5833 20.13 79.2833 20.13ZM90.7713 20V6.35H92.5393V10.068L92.3573 9.418C92.7386 8.378 93.3799 7.58933 94.2813 7.052C95.1826 6.49733 96.3006 6.22 97.6353 6.22V8.014C97.5659 8.014 97.4966 8.014 97.4273 8.014C97.3579 7.99667 97.2886 7.988 97.2193 7.988C95.7806 7.988 94.6539 8.43 93.8393 9.314C93.0246 10.1807 92.6173 11.42 92.6173 13.032V20H90.7713ZM106.675 20.13C105.253 20.13 104.005 19.8353 102.931 19.246C101.856 18.6393 101.015 17.816 100.409 16.776C99.8021 15.7187 99.4987 14.514 99.4987 13.162C99.4987 11.81 99.7847 10.614 100.357 9.574C100.946 8.534 101.743 7.71933 102.749 7.13C103.771 6.52333 104.915 6.22 106.181 6.22C107.463 6.22 108.599 6.51467 109.587 7.104C110.592 7.676 111.381 8.49067 111.953 9.548C112.525 10.588 112.811 11.7927 112.811 13.162C112.811 13.2487 112.802 13.344 112.785 13.448C112.785 13.5347 112.785 13.63 112.785 13.734H100.903V12.356H111.797L111.069 12.902C111.069 11.914 110.852 11.0387 110.419 10.276C110.003 9.496 109.431 8.88933 108.703 8.456C107.975 8.02267 107.134 7.806 106.181 7.806C105.245 7.806 104.404 8.02267 103.659 8.456C102.913 8.88933 102.333 9.496 101.917 10.276C101.501 11.056 101.293 11.9487 101.293 12.954V13.24C101.293 14.28 101.518 15.1987 101.969 15.996C102.437 16.776 103.078 17.3913 103.893 17.842C104.725 18.2753 105.669 18.492 106.727 18.492C107.559 18.492 108.33 18.3447 109.041 18.05C109.769 17.7553 110.393 17.3047 110.913 16.698L111.953 17.894C111.346 18.622 110.583 19.1767 109.665 19.558C108.763 19.9393 107.767 20.13 106.675 20.13ZM123.763 20V1.8H131.173C133.114 1.8 134.813 2.19 136.269 2.97C137.742 3.73267 138.886 4.79867 139.701 6.168C140.515 7.53733 140.923 9.11467 140.923 10.9C140.923 12.6853 140.515 14.2627 139.701 15.632C138.886 17.0013 137.742 18.076 136.269 18.856C134.813 19.6187 133.114 20 131.173 20H123.763ZM125.687 18.336H131.069C132.681 18.336 134.076 18.024 135.255 17.4C136.451 16.7587 137.378 15.8833 138.037 14.774C138.695 13.6473 139.025 12.356 139.025 10.9C139.025 9.42667 138.695 8.13533 138.037 7.026C137.378 5.91667 136.451 5.05 135.255 4.426C134.076 3.78467 132.681 3.464 131.069 3.464H125.687V18.336ZM144.853 20V6.35H146.699V20H144.853ZM145.789 3.334C145.408 3.334 145.087 3.204 144.827 2.944C144.567 2.684 144.437 2.372 144.437 2.008C144.437 1.644 144.567 1.34067 144.827 1.098C145.087 0.837999 145.408 0.707999 145.789 0.707999C146.171 0.707999 146.491 0.829332 146.751 1.072C147.011 1.31467 147.141 1.618 147.141 1.982C147.141 2.36333 147.011 2.684 146.751 2.944C146.509 3.204 146.188 3.334 145.789 3.334ZM157.66 25.174C156.412 25.174 155.216 24.992 154.072 24.628C152.928 24.264 152 23.744 151.29 23.068L152.226 21.664C152.867 22.236 153.656 22.6867 154.592 23.016C155.545 23.3627 156.55 23.536 157.608 23.536C159.341 23.536 160.615 23.1287 161.43 22.314C162.244 21.5167 162.652 20.2687 162.652 18.57V15.164L162.912 12.824L162.73 10.484V6.35H164.498V18.336C164.498 20.6933 163.917 22.418 162.756 23.51C161.612 24.6193 159.913 25.174 157.66 25.174ZM157.322 19.48C156.022 19.48 154.852 19.2027 153.812 18.648C152.772 18.076 151.948 17.2873 151.342 16.282C150.752 15.2767 150.458 14.124 150.458 12.824C150.458 11.524 150.752 10.38 151.342 9.392C151.948 8.38667 152.772 7.60667 153.812 7.052C154.852 6.49733 156.022 6.22 157.322 6.22C158.535 6.22 159.627 6.47133 160.598 6.974C161.568 7.47667 162.34 8.222 162.912 9.21C163.484 10.198 163.77 11.4027 163.77 12.824C163.77 14.2453 163.484 15.45 162.912 16.438C162.34 17.426 161.568 18.18 160.598 18.7C159.627 19.22 158.535 19.48 157.322 19.48ZM157.504 17.842C158.509 17.842 159.402 17.634 160.182 17.218C160.962 16.7847 161.577 16.1953 162.028 15.45C162.478 14.6873 162.704 13.812 162.704 12.824C162.704 11.836 162.478 10.9693 162.028 10.224C161.577 9.47867 160.962 8.898 160.182 8.482C159.402 8.04867 158.509 7.832 157.504 7.832C156.516 7.832 155.623 8.04867 154.826 8.482C154.046 8.898 153.43 9.47867 152.98 10.224C152.546 10.9693 152.33 11.836 152.33 12.824C152.33 13.812 152.546 14.6873 152.98 15.45C153.43 16.1953 154.046 16.7847 154.826 17.218C155.623 17.634 156.516 17.842 157.504 17.842ZM169.635 20V6.35H171.481V20H169.635ZM170.571 3.334C170.189 3.334 169.869 3.204 169.609 2.944C169.349 2.684 169.219 2.372 169.219 2.008C169.219 1.644 169.349 1.34067 169.609 1.098C169.869 0.837999 170.189 0.707999 170.571 0.707999C170.952 0.707999 171.273 0.829332 171.533 1.072C171.793 1.31467 171.923 1.618 171.923 1.982C171.923 2.36333 171.793 2.684 171.533 2.944C171.29 3.204 170.969 3.334 170.571 3.334ZM180.933 20.13C179.65 20.13 178.662 19.7833 177.969 19.09C177.276 18.3967 176.929 17.4173 176.929 16.152V3.334H178.775V16.048C178.775 16.8453 178.974 17.4607 179.373 17.894C179.789 18.3273 180.378 18.544 181.141 18.544C181.956 18.544 182.632 18.31 183.169 17.842L183.819 19.168C183.455 19.4973 183.013 19.74 182.493 19.896C181.99 20.052 181.47 20.13 180.933 20.13ZM174.485 7.884V6.35H182.935V7.884H174.485ZM195.733 20V16.984L195.655 16.49V11.446C195.655 10.2847 195.326 9.392 194.667 8.768C194.026 8.144 193.064 7.832 191.781 7.832C190.897 7.832 190.057 7.97933 189.259 8.274C188.462 8.56867 187.786 8.95867 187.231 9.444L186.399 8.066C187.093 7.47667 187.925 7.026 188.895 6.714C189.866 6.38467 190.889 6.22 191.963 6.22C193.731 6.22 195.092 6.662 196.045 7.546C197.016 8.41267 197.501 9.73867 197.501 11.524V20H195.733ZM191.027 20.13C190.005 20.13 189.112 19.9653 188.349 19.636C187.604 19.2893 187.032 18.8213 186.633 18.232C186.235 17.6253 186.035 16.932 186.035 16.152C186.035 15.4413 186.2 14.8 186.529 14.228C186.876 13.6387 187.431 13.1707 188.193 12.824C188.973 12.46 190.013 12.278 191.313 12.278H196.019V13.656H191.365C190.048 13.656 189.129 13.89 188.609 14.358C188.107 14.826 187.855 15.4067 187.855 16.1C187.855 16.88 188.159 17.504 188.765 17.972C189.372 18.44 190.221 18.674 191.313 18.674C192.353 18.674 193.246 18.44 193.991 17.972C194.754 17.4867 195.309 16.7933 195.655 15.892L196.071 17.166C195.725 18.0673 195.118 18.7867 194.251 19.324C193.402 19.8613 192.327 20.13 191.027 20.13ZM202.515 20V0.707999H204.361V20H202.515ZM221.711 20.156C220.359 20.156 219.059 19.9393 217.811 19.506C216.58 19.0553 215.627 18.4833 214.951 17.79L215.705 16.308C216.346 16.932 217.204 17.4607 218.279 17.894C219.371 18.31 220.515 18.518 221.711 18.518C222.855 18.518 223.782 18.3793 224.493 18.102C225.221 17.8073 225.749 17.4173 226.079 16.932C226.425 16.4467 226.599 15.9093 226.599 15.32C226.599 14.6093 226.391 14.0373 225.975 13.604C225.576 13.1707 225.047 12.8327 224.389 12.59C223.73 12.33 223.002 12.1047 222.205 11.914C221.407 11.7233 220.61 11.524 219.813 11.316C219.015 11.0907 218.279 10.796 217.603 10.432C216.944 10.068 216.407 9.59133 215.991 9.002C215.592 8.39533 215.393 7.60667 215.393 6.636C215.393 5.73467 215.627 4.91133 216.095 4.166C216.58 3.40333 217.317 2.79667 218.305 2.346C219.293 1.878 220.558 1.644 222.101 1.644C223.123 1.644 224.137 1.79133 225.143 2.086C226.148 2.36333 227.015 2.75333 227.743 3.256L227.093 4.79C226.313 4.27 225.481 3.88867 224.597 3.646C223.73 3.40333 222.889 3.282 222.075 3.282C220.983 3.282 220.081 3.42933 219.371 3.724C218.66 4.01867 218.131 4.41733 217.785 4.92C217.455 5.40533 217.291 5.96 217.291 6.584C217.291 7.29467 217.49 7.86667 217.889 8.3C218.305 8.73333 218.842 9.07133 219.501 9.314C220.177 9.55667 220.913 9.77333 221.711 9.964C222.508 10.1547 223.297 10.3627 224.077 10.588C224.874 10.8133 225.602 11.108 226.261 11.472C226.937 11.8187 227.474 12.2867 227.873 12.876C228.289 13.4653 228.497 14.2367 228.497 15.19C228.497 16.074 228.254 16.8973 227.769 17.66C227.283 18.4053 226.538 19.012 225.533 19.48C224.545 19.9307 223.271 20.156 221.711 20.156ZM236.615 20.13C235.332 20.13 234.344 19.7833 233.651 19.09C232.957 18.3967 232.611 17.4173 232.611 16.152V3.334H234.457V16.048C234.457 16.8453 234.656 17.4607 235.055 17.894C235.471 18.3273 236.06 18.544 236.823 18.544C237.637 18.544 238.313 18.31 238.851 17.842L239.501 19.168C239.137 19.4973 238.695 19.74 238.175 19.896C237.672 20.052 237.152 20.13 236.615 20.13ZM230.167 7.884V6.35H238.617V7.884H230.167ZM248.503 20.13C247.342 20.13 246.328 19.9133 245.461 19.48C244.594 19.0467 243.918 18.3967 243.433 17.53C242.965 16.6633 242.731 15.58 242.731 14.28V6.35H244.577V14.072C244.577 15.528 244.932 16.6287 245.643 17.374C246.371 18.102 247.385 18.466 248.685 18.466C249.638 18.466 250.462 18.2753 251.155 17.894C251.866 17.4953 252.403 16.9233 252.767 16.178C253.148 15.4327 253.339 14.54 253.339 13.5V6.35H255.185V20H253.417V16.256L253.703 16.932C253.27 17.9373 252.594 18.726 251.675 19.298C250.774 19.8527 249.716 20.13 248.503 20.13ZM265.764 20.13C264.464 20.13 263.294 19.8353 262.254 19.246C261.231 18.6567 260.425 17.842 259.836 16.802C259.247 15.7447 258.952 14.5313 258.952 13.162C258.952 11.7753 259.247 10.562 259.836 9.522C260.425 8.482 261.231 7.676 262.254 7.104C263.294 6.51467 264.464 6.22 265.764 6.22C266.96 6.22 268.026 6.48867 268.962 7.026C269.915 7.56333 270.669 8.352 271.224 9.392C271.796 10.4147 272.082 11.6713 272.082 13.162C272.082 14.6353 271.805 15.892 271.25 16.932C270.695 17.972 269.941 18.7693 268.988 19.324C268.052 19.8613 266.977 20.13 265.764 20.13ZM265.894 18.492C266.865 18.492 267.731 18.2753 268.494 17.842C269.274 17.3913 269.881 16.7673 270.314 15.97C270.765 15.1553 270.99 14.2193 270.99 13.162C270.99 12.0873 270.765 11.1513 270.314 10.354C269.881 9.55667 269.274 8.94133 268.494 8.508C267.731 8.05733 266.865 7.832 265.894 7.832C264.941 7.832 264.083 8.05733 263.32 8.508C262.557 8.94133 261.951 9.55667 261.5 10.354C261.049 11.1513 260.824 12.0873 260.824 13.162C260.824 14.2193 261.049 15.1553 261.5 15.97C261.951 16.7673 262.557 17.3913 263.32 17.842C264.083 18.2753 264.941 18.492 265.894 18.492ZM271.042 20V15.892L271.224 13.136L270.964 10.38V0.707999H272.81V20H271.042ZM277.951 20V6.35H279.797V20H277.951ZM278.887 3.334C278.506 3.334 278.185 3.204 277.925 2.944C277.665 2.684 277.535 2.372 277.535 2.008C277.535 1.644 277.665 1.34067 277.925 1.098C278.185 0.837999 278.506 0.707999 278.887 0.707999C279.268 0.707999 279.589 0.829332 279.849 1.072C280.109 1.31467 280.239 1.618 280.239 1.982C280.239 2.36333 280.109 2.684 279.849 2.944C279.606 3.204 279.286 3.334 278.887 3.334ZM290.497 20.13C289.18 20.13 287.993 19.8353 286.935 19.246C285.895 18.6393 285.072 17.816 284.465 16.776C283.859 15.7187 283.555 14.514 283.555 13.162C283.555 11.7927 283.859 10.588 284.465 9.548C285.072 8.508 285.895 7.69333 286.935 7.104C287.975 6.51467 289.163 6.22 290.497 6.22C291.849 6.22 293.045 6.51467 294.085 7.104C295.143 7.69333 295.966 8.508 296.555 9.548C297.162 10.588 297.465 11.7927 297.465 13.162C297.465 14.514 297.162 15.7187 296.555 16.776C295.966 17.816 295.143 18.6393 294.085 19.246C293.028 19.8353 291.832 20.13 290.497 20.13ZM290.497 18.492C291.485 18.492 292.361 18.2753 293.123 17.842C293.886 17.3913 294.484 16.7673 294.917 15.97C295.368 15.1553 295.593 14.2193 295.593 13.162C295.593 12.0873 295.368 11.1513 294.917 10.354C294.484 9.55667 293.886 8.94133 293.123 8.508C292.361 8.05733 291.494 7.832 290.523 7.832C289.553 7.832 288.686 8.05733 287.923 8.508C287.161 8.94133 286.554 9.55667 286.103 10.354C285.653 11.1513 285.427 12.0873 285.427 13.162C285.427 14.2193 285.653 15.1553 286.103 15.97C286.554 16.7673 287.161 17.3913 287.923 17.842C288.686 18.2753 289.544 18.492 290.497 18.492Z" fill="white"/>
</svg>
