<svg width="29" height="25" viewBox="0 0 29 25" fill="none" xmlns="http://www.w3.org/2000/svg">
<path fill-rule="evenodd" clip-rule="evenodd" d="M25.1934 1.0912C25.5332 0.94819 25.9051 0.898866 26.2704 0.948363C26.6357 0.997861 26.9811 1.14437 27.2706 1.37264C27.5601 1.60092 27.7831 1.90261 27.9164 2.24632C28.0497 2.59002 28.0885 2.96318 28.0286 3.32695L24.9101 22.2428C24.6076 24.0675 22.6056 25.1138 20.9322 24.205C19.5325 23.4446 17.4535 22.2731 15.5835 21.0507C14.6485 20.4388 11.7844 18.4795 12.1364 17.0852C12.4389 15.8931 17.2514 11.4133 20.0014 8.74995C21.0807 7.70358 20.5885 7.09995 19.3139 8.06245C16.1472 10.4522 11.0666 14.0863 9.38637 15.1093C7.90412 16.0113 7.13137 16.1653 6.20737 16.0113C4.52162 15.7308 2.95825 15.2963 1.68225 14.767C-0.0420034 14.052 0.0418716 11.6815 1.68087 10.9912L25.1934 1.0912Z" fill="white"/>
</svg>
