<svg width="1440" height="784" viewBox="0 0 1440 784" fill="none" xmlns="http://www.w3.org/2000/svg">
<mask id="mask0_164_1404" style="mask-type:luminance" maskUnits="userSpaceOnUse" x="-626" y="-257" width="2204" height="1016">
<path d="M-625.707 -256.268L1532.07 20.203L1577.21 758.13L-580.569 481.661L-625.707 -256.268Z" fill="white"/>
</mask>
<g mask="url(#mask0_164_1404)">
<mask id="mask1_164_1404" style="mask-type:luminance" maskUnits="userSpaceOnUse" x="-570" y="-238" width="2068" height="926">
<path d="M907.519 460.572C807.301 440.024 598.336 276.198 482.73 185.282C457.706 165.619 436.218 148.86 420.401 136.897C328.354 67.8872 273.854 78.1485 204.392 90.7902C141.421 102.22 70.0105 115.19 -48.529 72.3553C-135.803 41.0187 -170.262 -20.9054 -203.225 -80.7068C-227.163 -123.035 -249.271 -163.172 -289.562 -192.142C-396.022 -268.103 -445.207 -225.509 -492.87 -184.421C-516.533 -163.838 -538.978 -144.463 -568.164 -138.822L-569.385 -141.615C-540.87 -147.394 -518.424 -166.771 -495.066 -187.05C-446.762 -228.37 -396.634 -271.498 -288.772 -194.524C-247.809 -165.416 -225.305 -124.471 -201.336 -81.7719C-168.435 -22.7107 -134.373 38.4054 -48.4382 69.4674C69.43 112.165 140.506 99.1272 203.142 87.6293C270.317 75.2429 328.11 64.9315 421.191 134.516C436.98 146.109 458.497 163.238 483.521 182.901C607.205 279.831 836.955 459.91 925.891 459.616C944.994 459.537 964.799 459.964 985.578 460.229C1079.94 461.774 1187.18 463.782 1257.18 421.821C1264.4 417.489 1271.28 413.088 1278.5 408.753C1339.36 371.824 1401.74 333.389 1479.16 349.263C1480.17 349.47 1481.17 349.675 1482.52 349.951L1482.76 352.907C1481.75 352.7 1480.75 352.495 1479.74 352.288C1402.99 336.55 1340.91 374.685 1280.73 411.753C1273.51 416.088 1266.62 420.488 1259.4 424.821C1188.77 467.014 1081.52 465.006 986.859 463.76C966.08 463.496 946.276 463.07 927.173 463.15C920.866 462.583 914.559 462.016 907.519 460.572ZM869.277 448.371C880.308 450.27 891.673 452.237 903.372 454.273C1022.05 474.975 1156.43 498.166 1256.22 445.966C1272.33 437.644 1288.63 427.543 1304.31 418.044C1358.59 385.212 1414.73 350.946 1482.76 364.897C1483.1 364.967 1483.44 365.035 1483.77 365.102L1483.53 362.147C1483.19 362.079 1482.86 362.009 1482.52 361.942C1413.47 347.784 1357.34 382.05 1302.76 415.181C1287.07 424.68 1270.74 434.412 1254.66 443.105C1155.51 495.073 1021.14 471.88 903.127 451.316C891.427 449.279 880.062 447.312 869.03 445.415C867.02 445.001 865.346 444.659 863.333 444.245C746.356 420.263 491.622 240.875 394.368 172.613L393.301 171.668C303.36 108.177 242.608 110.615 172.687 113.719C109.985 116.485 39.392 119.448 -69.1845 77.5666C-148.141 47.2089 -181.621 -10.8834 -214.31 -67.3582C-238.185 -108.948 -260.872 -148.113 -300.402 -175.836C-403.202 -247.414 -451.198 -202.396 -497.642 -158.513C-519.629 -137.59 -540.733 -117.938 -566.903 -111.678L-565.682 -108.885C-538.874 -115.379 -518.105 -135.098 -495.782 -155.951C-449.949 -199.234 -402.562 -243.65 -301.131 -172.715C-261.997 -145.799 -239.647 -106.704 -215.8 -65.4833C-183.083 -8.63945 -149.205 50.2593 -68.9074 80.8934C40.004 122.843 111.236 119.646 173.967 117.25C243.554 114.079 303.636 111.502 392.875 174.488L393.943 175.433C491.196 243.692 746.297 423.52 863.944 447.641C865.62 447.985 867.631 448.397 869.277 448.371ZM1253.73 467.618C1275.93 457.274 1297.19 443.468 1318.21 430.702C1369.26 398.663 1421.86 365.489 1485.51 378.176L1485.27 375.218C1420.61 362.325 1367.67 395.431 1316.32 427.772C1295.67 440.976 1274.04 454.345 1252.17 464.755C1119.91 526.645 958.621 476.864 816.255 432.776L811.868 431.513C688.821 393.932 461.657 272.878 365.105 209.12C278.305 151.722 215.236 146.057 142.535 139.507C80.1343 133.978 9.41686 127.47 -89.8681 86.4046C-161.876 56.3803 -194.777 1.31475 -226.885 -52.1347C-250.973 -92.3148 -273.568 -130.369 -311.635 -156.341C-410.473 -223.837 -458.437 -174.451 -500.918 -130.482C-521.2 -108.847 -540.629 -88.8538 -564.451 -82.1117L-563.231 -79.3183C-539.073 -85.9894 -519.339 -106.286 -498.723 -127.853C-454.72 -173.328 -409.193 -220.306 -312.091 -153.892C-275.06 -128.496 -252.495 -90.8093 -228.439 -50.9985C-196.299 2.82031 -162.667 58.7616 -89.6526 88.9912C9.966 130.125 81.0212 136.702 143.421 142.232C215.785 148.713 278.521 154.309 364.617 211.2C461.171 274.956 688.67 396.081 812.051 433.732L816.439 434.993C871.899 452.179 930.405 470.351 988.726 482.31C1080.59 501.509 1172.52 505.461 1253.73 467.618ZM1251.24 489.269C1277.65 477.971 1302.93 460.994 1327.3 444.917C1378.19 411.03 1426.29 379.112 1487.2 390.51L1486.95 387.553C1459.16 382.219 1431.44 385.617 1401.83 398.075C1375.39 409.002 1350.11 425.981 1325.77 442.425C1301.41 458.502 1276.43 475.18 1250.02 486.476C1096.95 551.729 928.832 491.1 755.375 417.751C709.602 398.194 656.609 378.971 600.875 358.462C502.659 322.337 401.063 285.157 337.885 246.409C255.263 195.681 190.147 181.239 114.639 164.668C52.2344 151.145 -18.9146 135.468 -109.605 94.7093C-174.638 65.389 -206.959 13.3488 -238.486 -37.0754C-263.091 -75.5432 -285.898 -112.192 -322.198 -136.708C-416.708 -199.685 -462.781 -147.369 -503.434 -101.209C-522.405 -79.6666 -540.493 -59.3965 -561.634 -52.1069L-560.414 -49.3134C-538.603 -56.4675 -520.545 -77.1052 -501.239 -98.5793C-460.859 -144.068 -415.397 -195.782 -322.622 -133.889C-287.025 -109.88 -264.249 -73.6007 -240.283 -34.8992C-208.724 15.8943 -175.672 68.8104 -109.969 98.2695C-18.9427 139.094 52.2063 154.772 114.946 168.363C190.118 184.868 254.869 198.87 337.154 249.529C400.332 288.277 502.265 325.526 600.816 361.719C656.549 382.228 709.543 401.451 755.314 421.01C840.001 456.9 923.468 490 1004.58 506.633C1089.65 523.348 1172.31 522.858 1251.24 489.269ZM1248.42 510.851C1278.73 498.9 1306.75 479.215 1333.82 460.063C1383.01 425.462 1429.37 392.459 1488.27 403.446L1488.02 400.489C1428.15 389.666 1381.46 422.599 1331.96 457.501C1304.89 476.655 1277.2 496.409 1246.86 507.99C1062.44 580.621 866.646 492.155 697.874 403.781C627.263 366.777 553.188 351.59 481.431 336.513C417.411 323.386 357.049 310.648 309.354 283.794C232.586 240.077 163.413 216.447 90.1572 191.255C23.0249 168.408 -46.4835 144.711 -130.99 103.042C-188.678 74.8634 -220.085 25.9179 -250.666 -21.0439C-275.242 -59.1426 -298.626 -94.817 -333.493 -117.953C-423.705 -176.777 -467.856 -121.16 -506.984 -72.5089C-524.279 -50.6229 -540.724 -30.3798 -559.549 -22.9778L-557.994 -20.1166C-538.832 -27.449 -522.45 -48.4307 -504.82 -70.249C-466.301 -118.299 -422.393 -172.876 -334.252 -115.202C-299.783 -92.8761 -276.732 -57.2677 -252.524 -19.6079C-221.545 28.1603 -189.805 77.1752 -131.416 105.859C-46.5731 147.597 22.9341 171.296 90.0664 194.143C162.956 218.898 232.129 242.528 308.898 286.243C356.959 313.536 417.626 325.974 481.675 339.469C553.069 354.109 627.174 369.667 697.084 406.163C791.466 455.669 894.409 505.113 998.985 526.556C1082.11 543.599 1166.41 543.083 1248.42 510.851ZM1245.59 532.435C1279.5 520.131 1309.59 497.598 1338.74 475.601C1386.49 439.618 1431.81 406.039 1489.28 415.642L1489.03 412.686C1430.56 402.877 1385.27 436.823 1336.85 472.67C1307.67 494.3 1277.58 516.829 1244.01 529.203C1148.72 564.161 1047.96 564.937 935.828 531.772C829.419 500.145 726.746 442.035 640.68 389.51C560.862 340.81 488.136 341.886 423.941 342.528C373.577 343.099 325.865 343.854 281.433 320.575C220.147 288.754 160.204 261.203 96.848 232.227C18.7721 196.601 -61.7101 159.754 -151.735 111.14C-202.081 84.1056 -232.875 38.5532 -262.205 -5.24429C-287.358 -42.3725 -311.019 -77.3781 -344.757 -98.8281C-430.639 -153.131 -475.003 -92.109 -510.474 -43.0709C-526.155 -21.5809 -540.923 -0.993656 -557.097 6.58833L-555.572 9.08196C-539.094 1.19842 -524.326 -19.3888 -508.34 -41.1786C-471.347 -91.7222 -429.694 -149.667 -345.183 -96.008C-312.144 -75.0645 -288.485 -40.0606 -263.698 -3.36967C-233.665 40.9346 -202.841 86.8564 -151.795 114.397C-61.7696 163.011 18.7126 199.858 96.7874 235.485C160.144 264.461 220.056 291.641 281.374 323.832C326.141 347.179 374.188 346.496 425.221 346.06C489.083 345.348 561.472 344.206 640.621 392.768C727.021 445.361 829.725 503.841 936.47 535.537C954.721 541.094 972.548 545.478 989.977 549.052C1081.08 567.005 1165.32 561.752 1245.59 532.435ZM1243.11 554.087C1279.96 541.661 1312.1 515.916 1343.01 491.373C1390 454.143 1434.23 419.25 1490.99 428.346L1490.78 425.758C1433.34 416.524 1388.48 451.649 1341.52 489.25C1310.6 513.792 1278.44 539.169 1241.92 551.663C1006.1 632.284 786.497 514.96 584.216 376.117C498.269 317.078 434.664 336.733 378.761 353.973C336.997 366.845 297.821 379.155 254.274 358.603C125 297.583 -27.1372 207.169 -171.413 120.183C-214.415 94.2917 -243.896 52.6437 -272.283 12.3084C-298.076 -24.5878 -322.679 -59.0615 -355.319 -79.1952C-437.577 -129.485 -479.652 -64.7243 -513.536 -12.4524C-527.847 9.67982 -540.421 28.9007 -553.945 36.6644L-552.42 39.1547C-538.592 31.0928 -526.018 11.872 -511.403 -10.5632C-477.76 -61.7935 -436.295 -125.951 -355.775 -76.746C-323.501 -57.0494 -299.567 -22.7129 -273.805 13.814C-245.054 54.5846 -215.543 96.6036 -171.838 123.003C-27.228 210.057 124.576 300.401 254.184 361.489C298.432 382.551 338.248 370.006 380.348 357.203C435.912 339.896 498.881 320.473 583.792 378.936C708.506 464.453 839.463 541.805 977.221 570.049C1062.63 586.836 1151.81 585.502 1243.11 554.087ZM1239.95 575.6C1279.76 563.056 1313.32 534.697 1346.31 507.307C1392.54 468.831 1436.3 432.393 1492.03 440.911L1491.82 438.324C1435.08 429.599 1391.01 466.339 1344.48 505.115C1311.8 532.203 1278.24 560.562 1238.76 573.177C972.692 658.495 739.002 522.295 526.382 362.078C435.342 293.277 382.529 331.857 335.93 365.9C301.757 390.862 269.443 414.392 225.744 395.985C131.517 356.321 6.25355 268.148 -104.321 190.254C-135.468 168.245 -164.849 147.687 -192.431 128.953C-227.693 105.011 -255.194 67.4016 -281.93 31.0387C-309.095 -6.50139 -335.04 -41.2499 -366.918 -60.1384C-445.516 -106.045 -487.315 -33.9608 -517.879 18.6268C-530.268 40.065 -540.923 58.5883 -551.828 66.1626L-549.968 68.7241C-538.76 60.8483 -527.771 42.3943 -515.41 20.587C-483.384 -34.2446 -443.899 -102.444 -367.374 -57.6892C-335.862 -39.2379 -310.587 -4.62824 -283.485 32.1733C-256.747 68.5378 -228.882 106.583 -192.918 131.033C-165.336 149.767 -135.924 170.694 -104.807 192.332C6.10292 270.297 131.702 358.538 225.927 398.204C270.663 417.185 303.586 393.054 338.063 367.789C386.217 332.613 436.258 296.37 525.865 363.79C661.161 465.645 805.224 558.035 960.411 589.854C1049.6 608.506 1142.37 606.819 1239.95 575.6ZM1237.46 597.251C1279.89 584.517 1315.22 553.614 1349.3 523.545C1395.07 483.52 1438.08 445.834 1493.44 453.915L1493.23 451.33C1436.86 443.04 1393.58 481.397 1347.47 521.353C1313.36 551.051 1278.37 582.026 1236.27 594.829C1103.51 634.819 972.892 629.109 836.127 577.088C725.541 534.793 612.289 464.343 469.889 348.316C374.153 270.556 334.174 324.848 295.688 377.266C268.468 414.556 242.709 449.6 198.188 433.205C109.144 400.415 -28.014 288.006 -137.953 197.89C-165.171 175.596 -190.623 154.755 -212.841 137.122C-240.334 115.499 -265.119 82.8051 -289.142 51.3582C-318.684 12.9657 -346.061 -23.1652 -378.183 -41.0123C-453.488 -82.9738 -493.181 -5.3735 -522.435 51.1168C-532.632 71.1884 -541.429 88.2757 -549.711 95.661L-547.882 97.8532C-539.294 90.1666 -530.528 72.7099 -519.996 52.7062C-491.352 -3.18132 -451.871 -79.3723 -378.669 -38.934C-347.582 -21.6596 -319.871 14.5391 -291.032 52.4248C-267.008 83.8717 -241.886 116.633 -214.03 138.694C-191.81 156.329 -166.358 177.169 -139.14 199.463C-28.8347 290.017 108.323 402.427 198.035 435.353C243.563 451.956 269.93 416.307 297.792 378.788C335.669 326.972 375.067 273.651 468.701 349.887C611.771 466.054 725.054 536.873 835.977 579.238C872.393 593.242 908.532 603.923 944.396 611.276C1043.27 631.551 1140.07 626.69 1237.46 597.251ZM1234.97 618.901C1280.03 605.979 1316.78 572.462 1352.29 539.781C1397.27 498.14 1440.16 458.976 1495.15 466.619L1494.94 464.032C1438.97 456.552 1396.12 496.086 1350.47 537.589C1315.26 569.97 1278.53 603.856 1233.78 616.479C1088.62 657.923 947.277 650.014 802.408 591.608C684.473 544.176 560.736 462.492 412.724 334.414C379.348 305.409 352.256 292.589 329.375 294.8C291.781 298.354 273.126 343.575 255.354 387.525C234.781 437.44 215.64 484.74 170.327 470.725C78.0276 442.355 -96.5399 276.135 -201.001 176.606C-212.797 165.468 -223.893 154.837 -233.524 145.96C-252.818 127.834 -272.33 103.125 -292.969 76.731C-324.279 36.8865 -356.686 -4.27102 -389.416 -21.5183C-462.435 -59.7412 -501.27 28.2101 -527.11 86.1255C-534.902 103.42 -541.567 118.402 -547.23 125.598L-545.066 127.858C-539.067 120.732 -532.433 105.38 -524.641 88.0858C-499.075 30.8393 -460.452 -55.7027 -389.536 -18.9981C-357.508 -2.25892 -325.101 38.8986 -294.156 78.3044C-273.517 104.698 -254.007 129.406 -234.377 147.601C-224.713 156.848 -213.649 167.109 -201.853 178.247C-97.3933 277.778 77.8752 444.503 170.51 472.944C172.552 473.725 174.563 474.137 176.574 474.549C219.143 483.279 238.07 437.386 257.761 388.745C275.595 345.536 293.945 300.614 330.567 297.224C352.472 295.176 379.229 307.928 411.873 336.057C560.251 464.573 684.323 546.326 802.591 593.827C844.523 610.78 886.087 623.298 927.648 631.821C1029.57 653.082 1131.33 648.515 1234.97 618.901ZM216.939 397.086C228.307 343.469 240.163 287.77 274.59 281.751C294.727 278.25 320.508 291.165 354.008 321.649C509.795 464.038 641.552 554.994 768.199 608.21C921.787 672.398 1073.58 683.177 1232.12 640.116C1279.82 627.373 1317.65 590.804 1354.25 555.44C1399.11 512.321 1441.2 471.541 1496.13 478.447L1495.59 475.791C1439.98 468.748 1397.25 509.761 1352.42 553.248C1315.82 588.614 1277.96 624.812 1230.93 637.692C1073.03 680.521 921.602 670.181 768.319 605.691C642.036 552.914 510.617 462.026 355.163 319.706C320.933 288.345 294.481 275.293 273.704 279.026C238.305 285.21 226.174 341.578 214.531 395.866C201.246 458.173 188.659 516.992 144.081 507.852C143.411 507.713 142.741 507.578 142.071 507.439C101.727 497.714 30.8033 445.026 -62.9581 355.319C-134.894 286.437 -210.859 204.74 -254.301 153.688C-263.781 142.663 -274.481 128.841 -285.914 114.145C-320.546 69.9878 -364.019 14.5698 -400.741 -3.13072C-472.082 -37.0153 -511.152 67.9624 -532.484 124.624C-537.597 138.471 -541.643 149.269 -545.114 155.095L-542.98 156.987C-539.541 150.788 -535.493 139.993 -530.38 126.145C-509.629 70.4542 -470.8 -33.4817 -401.137 0.0569628C-365.116 17.2524 -322.007 72.2302 -287.71 116.32C-276.278 131.018 -265.578 144.836 -255.762 155.931C-183.513 240.5 44.8071 486.769 142.01 510.697C142.682 510.835 143.351 510.971 144.021 511.109C190.582 520.292 204.171 457.684 216.939 397.086ZM114.76 547.616C163.909 556.24 170.331 478.72 176.328 404.018C181.569 340.061 186.962 273.955 219.588 266.114C238.018 261.898 263.191 275.417 297.179 307.817C460.375 464.076 599.479 564.17 734.479 622.731C896.478 693.003 1058.33 705.845 1229.63 661.767C1279.62 648.765 1318.87 609.585 1356.58 571.539C1400.98 526.873 1442.94 484.615 1497.51 491.081L1497.33 488.862C1441.75 482.192 1399.48 524.75 1354.78 569.718C1317.05 607.393 1278.13 646.644 1228.44 659.343C1057.78 703.189 896.264 690.418 734.629 620.582C599.966 562.09 461.199 462.066 298.366 306.243C263.648 272.967 237.468 259.243 218.399 263.69C184.491 271.997 179.221 335.584 173.952 403.168C167.862 476.76 161.653 552.871 114.545 545.03C64.0859 536.499 -35.5898 439.041 -90.3975 382.027C-174.408 294.683 -247.847 203.695 -274.313 162.664C-299.651 123.318 -366.507 36.2215 -411.639 16.4326C-484.778 -15.2758 -523.925 120.565 -538.494 171.348C-540.016 176.849 -541.262 181.68 -542.327 184.732L-539.889 186.321C-538.854 182.9 -537.577 178.439 -536.055 172.938C-521.456 122.525 -482.825 -11.6048 -412.064 19.2512C-371.412 36.6694 -308.308 114.277 -276.506 164.032C-220.556 250.708 22.6169 529.087 112.779 547.572C113.419 547.34 114.089 547.479 114.76 547.616Z" fill="white"/>
</mask>
<g mask="url(#mask1_164_1404)">
<path d="M-623.143 -1233.62L-464.072 965.439L1565.45 1377.51L1406.38 -821.548L-623.143 -1233.62Z" fill="url(#paint0_linear_164_1404)" fill-opacity="0.6"/>
</g>
</g>
<defs>
<linearGradient id="paint0_linear_164_1404" x1="-412.91" y1="69.709" x2="1256.77" y2="88.4854" gradientUnits="userSpaceOnUse">
<stop stop-color="#BC2525" stop-opacity="0"/>
<stop offset="1" stop-color="#1F9D96"/>
</linearGradient>
</defs>
</svg>
