<svg width="1440" height="1516" viewBox="0 0 1440 1516" fill="none" xmlns="http://www.w3.org/2000/svg">
<mask id="mask0_151_532" style="mask-type:luminance" maskUnits="userSpaceOnUse" x="-523" y="219" width="2087" height="1038">
<path d="M1046.47 648.159C950.6 688.977 687.631 671.2 542.002 661.127C510.487 658.96 483.491 657.207 463.815 656.233C349.624 651.084 308.658 691.511 256.22 742.664C208.665 789.011 154.741 841.577 31.6802 874.098C-58.8184 898.212 -120.378 865.593 -179.56 833.91C-221.966 811.837 -261.674 790.563 -311.013 789.362C-441.075 786.686 -460.671 851.517 -479.758 914.183C-489.138 945.45 -498.113 974.982 -519.974 996.755L-522.468 995.09C-501.249 973.59 -492.274 944.056 -482.994 913.223C-463.484 849.988 -443.364 784.155 -311.583 786.877C-261.601 787.804 -221.135 809.535 -178.511 831.906C-119.766 862.996 -58.9649 895.158 30.2521 871.59C152.671 839.342 206.275 786.913 253.51 740.703C304.138 691.097 347.876 648.713 463.245 653.748C482.705 654.424 509.918 656.475 541.432 658.642C697.061 669.132 986.165 688.64 1061.59 636.661C1077.78 625.482 1094.83 614.326 1112.63 602.465C1193.62 548.895 1285.81 488.222 1323.41 411.825C1327.29 403.943 1330.85 396.196 1334.72 388.311C1367.19 321.508 1400.17 252.539 1474.24 221.004C1475.2 220.595 1476.16 220.184 1477.44 219.639L1479.19 222.011C1478.23 222.419 1477.27 222.83 1476.31 223.239C1402.88 254.5 1370 323.036 1338.18 389.568C1334.3 397.453 1330.75 405.198 1326.87 413.082C1288.84 490.049 1196.65 550.721 1115.56 604.723C1097.76 616.584 1080.71 627.741 1064.52 638.92C1058.86 642.107 1053.21 645.293 1046.47 648.159ZM1007.62 660.027C1017.98 655.226 1028.66 650.288 1039.67 645.215C1151.31 593.788 1277.59 535.352 1335.18 432.919C1344.54 416.469 1353.12 398.401 1361.5 381.199C1390.51 321.708 1420.35 259.915 1485.44 232.205C1485.77 232.068 1486.09 231.931 1486.41 231.794L1484.66 229.422C1484.34 229.559 1484.02 229.696 1483.7 229.833C1417.64 257.954 1387.8 319.745 1358.68 379.668C1350.3 396.872 1341.5 414.643 1332.37 431.39C1275.2 533.254 1148.92 591.69 1037.92 642.843C1026.91 647.916 1016.23 652.854 1005.87 657.657C1003.94 658.474 1002.34 659.157 1000.42 659.976C888.509 707.62 578.535 703.232 460.309 701.748L458.909 701.565C349.385 699.885 299.029 737.295 241.228 780.604C189.386 819.427 130.941 863.007 16.8437 890.544C-66.0761 910.652 -124.807 880.724 -182.023 851.71C-223.99 830.229 -263.683 810.117 -311.725 809.533C-436.393 808.456 -453.715 874.657 -470.309 938.99C-478.088 969.573 -485.779 998.559 -504.754 1019.11L-502.261 1020.77C-482.865 999.655 -475.494 970.805 -467.393 940.087C-451.005 876.62 -433.887 811.284 -310.718 812.612C-263.433 812.739 -224.062 832.987 -182.312 854.171C-124.88 883.482 -65.3906 913.866 18.8132 893.212C133.231 865.538 192.096 821.388 244.157 782.863C301.638 739.691 351.352 702.553 460.017 704.211L461.417 704.394C579.641 705.875 890.156 710.425 1002.7 662.509C1004.31 661.826 1006.23 661.007 1007.62 660.027ZM1344.35 452.779C1357.83 431.067 1368.7 406.961 1379.91 383.879C1406.59 326.94 1434 268.132 1494.7 241.898L1492.95 239.525C1431.29 266.169 1403.56 325.114 1376.77 382.487C1366.11 405.728 1354.7 429.675 1341.54 451.25C1261.4 580.812 1098.39 632.291 954.43 677.605L950.044 679.083C825.891 718.693 569.752 747.877 454.469 749.815C350.79 751.49 294.241 783.356 229.046 820.073C173.137 851.667 109.65 887.264 3.87357 910.091C-72.9681 926.441 -129.629 898.749 -184.774 871.971C-226.187 851.811 -265.223 832.592 -311.11 832.647C-430.283 832.735 -445.3 902.632 -458.483 964.734C-464.441 994.929 -470.53 1023.23 -487.26 1042.82L-484.767 1044.49C-467.715 1024.76 -461.525 996.025 -455.247 965.693C-441.556 901.426 -427.354 834.994 -310.221 834.995C-265.515 835.052 -226.696 853.977 -185.502 873.84C-130.138 900.915 -72.3986 928.926 5.40495 912.165C111.501 889.203 175.311 853.467 231.22 821.875C296.093 785.296 352.321 753.565 455.139 751.868C570.422 749.927 826.884 720.609 951.356 680.864L955.743 679.384C1011.83 661.74 1071.02 643.164 1126.81 619.412C1214.89 582.304 1295.07 532.198 1344.35 452.779ZM1353.52 472.639C1370.08 447.67 1382.71 418.528 1395.04 390.683C1420.62 332.262 1444.86 277.144 1502.56 251.409L1500.81 249.037C1474.41 260.665 1452.63 279.68 1433.96 307.496C1417.19 332.168 1404.55 361.311 1392.44 389.451C1380.12 417.295 1367.59 446.005 1351.03 470.973C1254.97 615.499 1080.5 661.725 894.864 700.238C845.773 710.23 790.72 724.707 732.668 739.683C630.375 766.088 524.66 793.564 450.775 797.359C354.122 802.276 291.259 827.87 218.456 857.696C158.376 882.494 89.7426 910.545 -8.57037 928.634C-79.1174 941.525 -133.708 916.069 -186.783 891.525C-227.743 873.123 -266.227 855.222 -309.852 855.486C-422.992 856.902 -434.876 928.19 -445.362 991.092C-450.255 1020.45 -455.06 1048.2 -469.227 1066.7L-466.734 1068.37C-451.928 1049.6 -447.339 1021.54 -442.126 992.051C-431.522 929.88 -419.844 859.458 -308.744 858.13C-265.979 857.844 -227.715 875.448 -187.176 894.421C-133.882 919.26 -78.2129 945.036 -7.02393 931.873C91.6091 913.645 160.243 885.594 220.642 860.659C293.126 830.972 355.449 805.218 451.78 800.438C525.665 796.642 631.702 769.03 734.315 742.488C792.367 727.511 847.42 713.035 896.511 703.045C987.184 684.309 1075.37 663.909 1152.97 630.874C1233.97 595.606 1303.96 547.112 1353.52 472.639ZM1362.37 492.635C1381.9 464.842 1395.45 431.803 1408.48 399.766C1432.24 341.731 1454.44 286.702 1510.21 261.786L1508.46 259.414C1451.94 285.036 1429.43 340.2 1405.56 398.67C1392.54 430.708 1379.31 463.609 1359.56 491.107C1240.7 660.139 1028.2 698.793 838.719 721.804C759.426 731.405 688.562 761.576 619.724 790.492C558.479 816.566 500.544 840.842 446.016 845.746C357.992 853.221 286.893 873.361 211.509 894.546C142.552 914.164 71.1326 934.441 -22.3994 948.158C-86.1102 957.749 -138.311 934.392 -188.777 912.243C-229.52 894.137 -267.986 877.401 -309.675 878.006C-416.998 880.453 -425.528 953.431 -433.42 1017.56C-436.709 1046.24 -440.132 1073.02 -452.271 1090.26L-449.458 1091.79C-436.997 1074.41 -434.012 1047.04 -430.403 1018.23C-422.715 954.959 -413.85 883.007 -308.887 880.787C-267.958 879.724 -229.809 896.599 -189.607 914.545C-138.384 937.149 -85.863 960.371 -21.2933 950.802C72.561 936.948 143.98 916.673 212.938 897.055C287.782 875.711 358.882 855.571 446.905 848.094C501.972 843.351 560.01 818.642 621.472 792.864C689.773 763.787 760.857 733.914 839.288 724.289C945.298 711.492 1058.55 693.664 1158.59 651.073C1238.12 617.218 1309.49 567.743 1362.37 492.635ZM1371.23 512.633C1393.62 482.448 1407.45 445.784 1420.75 410.124C1442.58 351.745 1463.59 296.829 1517.43 271.57L1515.68 269.198C1460.88 294.866 1440.09 350.077 1417.62 408.73C1404.1 444.096 1390.27 480.758 1368.19 510.806C1305.44 595.959 1220.22 655.223 1107.64 692.243C1000.73 727.24 883.193 737.542 782.677 742.934C689.464 747.945 628.223 791.161 574.005 829.046C531.504 858.826 491.353 887.22 441.46 893.266C372.794 901.852 307.494 913.288 238.551 925.497C153.633 940.613 66.0343 956.091 -35.8076 967.111C-92.6826 973.405 -142.594 952.577 -190.347 932.391C-231.075 915.447 -269.428 899.44 -309.279 900.822C-410.565 904.595 -416.458 982.293 -421.042 1044.63C-423.165 1072.02 -424.984 1098.12 -434.777 1113.98L-432.181 1115.21C-422.287 1098.92 -420.468 1072.82 -418.242 1045C-413.15 980.496 -407.956 906.991 -308.17 903.468C-269.178 902.062 -230.828 918.068 -190.639 934.853C-142.025 955.062 -91.894 976.185 -34.1603 969.916C67.6816 958.895 155.281 943.418 240.198 928.304C309.141 916.094 374.222 904.36 443.108 896.071C493.32 889.887 533.793 861.359 576.934 831.305C630.832 793.554 691.753 750.478 784.325 745.739C885.16 740.211 1002.92 730.205 1110.15 695.072C1128.56 689.182 1145.99 682.541 1162.66 675.443C1249.44 637.718 1318.29 584.253 1371.23 512.633ZM1380.4 532.493C1405.24 500.486 1419.13 459.903 1432.6 421.051C1453.14 362.055 1472.53 306.659 1525.51 281.378L1523.98 279.301C1470.36 304.856 1450.54 360.822 1430.23 420.114C1416.75 458.965 1402.65 499.253 1378.12 531.123C1219.75 736.846 971.98 764.804 727.713 764.387C623.903 764.17 580.097 817.881 541.577 865.058C512.796 900.296 485.921 933.552 438.202 941.403C296.541 964.702 120.128 976.304 -47.8158 986.247C-97.8547 989.241 -144.616 970.971 -189.763 953.18C-230.913 936.805 -269.789 921.799 -308.021 923.662C-404.136 928.739 -406.135 1008.29 -407.684 1072.45C-408.309 1099.59 -408.976 1123.25 -416.422 1137.72L-413.828 1138.95C-406.279 1124.05 -405.612 1100.39 -404.886 1072.81C-403 1009.68 -401.204 930.999 -307.132 926.01C-269.439 923.988 -231.202 939.267 -190.271 955.345C-144.588 973.294 -97.6075 991.863 -46.7075 988.893C121.557 978.812 297.649 967.346 439.63 943.91C488.21 936.085 515.506 902.257 544.609 866.882C582.806 819.844 626.192 766.701 728.822 767.03C879.378 767.215 1030.98 756.827 1162.77 700.719C1244.1 665.317 1319.19 612.312 1380.4 532.493ZM1388.93 552.624C1416.22 518.799 1429.96 475.161 1443.71 432.683C1462.94 373.071 1481.14 316.628 1532.94 291.457L1531.41 289.383C1478.65 314.962 1460.35 371.839 1441.02 431.883C1427.36 473.927 1413.63 517.565 1386.65 551.257C1205.02 778.569 935.443 798.668 671.249 786.087C558.022 780.53 533.252 844.059 511.396 900.113C495.367 941.218 480.172 980.024 433.443 989.788C332.695 1010.86 180.288 1008.74 45.7213 1006.81C7.7813 1006.21 -27.9023 1005.82 -61.1058 1005.93C-103.551 1006.08 -146.524 990.092 -188.198 974.72C-230.849 958.595 -271.01 944.136 -307.945 946.614C-398.665 953.291 -396.612 1038.9 -395.175 1101.4C-394.529 1126.84 -393.929 1148.79 -399.247 1161.58L-396.331 1162.67C-390.912 1149.46 -391.192 1127.37 -392.055 1101.63C-393.42 1036.38 -395.414 955.413 -307.055 948.962C-270.66 946.325 -231.141 961.056 -188.928 976.589C-147.252 991.962 -103.741 1008.11 -60.4356 1007.98C-27.2322 1007.87 8.67061 1008.56 46.3916 1008.86C181.28 1010.65 334.007 1012.64 434.755 991.569C482.665 981.69 498.064 942.019 514.194 900.479C536.779 842.557 560.412 782.628 671.702 787.844C839.765 795.768 1010.35 790.544 1158.81 727.339C1244.32 691.324 1322.28 635.928 1388.93 552.624ZM1398.1 572.484C1427.52 536.972 1441.43 490.144 1454.72 444.75C1472.76 384.088 1489.66 327.026 1540.92 301.697L1539.39 299.623C1487.16 325.361 1470.38 383.151 1452.02 443.95C1438.52 489.046 1424.93 535.741 1395.82 571.117C1303.85 682.344 1189.87 753.462 1046.54 788.772C930.518 817.126 797.556 823.087 616.068 807.242C494.182 796.799 488.507 866.223 483.123 933.187C479.429 980.731 475.805 1025.52 429.426 1037.47C336.666 1061.38 161.519 1045.56 21.1211 1032.87C-13.6287 1029.74 -46.12 1026.82 -74.1919 1024.75C-108.826 1022.35 -146.929 1008.96 -183.735 996.195C-228.851 980.728 -270.948 965.925 -307.548 969.432C-393.414 977.548 -386.697 1066.63 -382.111 1131.68C-380.315 1154.68 -378.884 1174.33 -382.073 1185.43L-379.376 1186.23C-376.084 1174.7 -377.734 1154.75 -379.21 1131.62C-384 1067.43 -390.163 979.67 -306.878 971.482C-271.457 968.091 -229.04 982.756 -184.785 998.201C-147.979 1010.97 -109.553 1024.22 -74.3829 1026.78C-46.3085 1028.85 -13.8172 1031.77 20.9326 1034.9C161.869 1047.75 337.017 1063.56 430.416 1039.38C477.759 1027.02 481.584 981.37 485.704 933.257C490.884 867.161 496.572 798.899 615.877 809.27C798.007 824.843 931.188 819.179 1047.53 790.688C1085.78 781.416 1122.06 769.479 1156.36 754.872C1250.96 714.602 1330.68 654.169 1398.1 572.484ZM1407.27 592.344C1438.82 555.148 1452.59 505.263 1465.73 456.817C1482.25 395.241 1498.27 336.995 1548.99 311.505L1547.46 309.43C1496 335.625 1480.19 394.169 1463.03 456.016C1449.99 504.031 1436.44 554.212 1404.99 590.976C1303.24 710.653 1179 786.139 1025.45 820.733C900.509 848.993 752.782 851.499 560.243 828.67C516.763 823.417 487.058 828.272 468.766 843.462C438.672 868.35 446.389 917.658 454.195 965.371C462.73 1019.79 471.118 1071.14 425.306 1085.58C332.084 1115.14 97.0982 1075.32 -43.5502 1051.44C-59.3793 1048.83 -74.3498 1046.24 -87.1621 1044.3C-113.006 1040.1 -142.466 1030.44 -173.762 1020C-221.137 1004.32 -270.129 988.173 -306.933 992.543C-388.907 1002.51 -376.065 1099.89 -367.836 1164.18C-365.444 1183.41 -363.298 1200.03 -364.36 1209.45L-361.343 1210.11C-359.959 1200.56 -362.324 1183.65 -364.716 1164.41C-372.829 1100.85 -385.117 1004.79 -305.721 994.756C-269.779 990.362 -220.787 1006.51 -173.951 1022.03C-142.655 1032.47 -113.197 1042.13 -87.0308 1046.19C-73.9993 1048.43 -59.2481 1050.72 -43.4189 1053.33C97.2293 1077.22 333.074 1117.06 426.618 1087.36C428.761 1086.84 430.685 1086.02 432.609 1085.2C473.333 1067.86 465.497 1017.83 456.877 965.008C449.509 917.889 441.688 869.013 471.043 844.83C488.589 830.347 517.974 825.629 560.377 830.562C753.454 853.55 901.502 850.908 1026.76 822.514C1071.23 812.541 1113.08 799.011 1152.84 782.084C1250.54 740.88 1334.63 677.809 1407.27 592.344ZM426.534 995.846C408.247 943.637 389.29 889.373 415.409 864.23C430.696 849.54 459.336 845.528 503.693 851.966C710.299 882.443 869.673 883.157 1005.04 854.749C1169.01 820.002 1303.62 740.876 1415.9 612.045C1449.8 573.46 1462.88 520.361 1475.55 468.996C1491.2 406.234 1505.71 347.074 1555.99 320.993L1554.14 319.054C1503.21 345.408 1488.28 405.138 1472.86 468.196C1460.18 519.562 1446.88 572.364 1413.62 610.676C1301.77 738.938 1167.7 818.223 1003.82 852.537C869.001 881.107 709.948 880.254 503.663 849.642C458.228 842.882 428.946 847.168 413.235 862.428C386.377 888.277 405.449 943.269 423.852 996.209C445.039 1056.92 465.001 1114.26 422.355 1132.42C421.713 1132.69 421.073 1132.97 420.431 1133.24C381.078 1148.43 293.345 1144.88 166.909 1123.13C69.875 1106.39 -37.2632 1081.1 -100.79 1062.95C-114.592 1059.09 -130.889 1053.56 -148.265 1047.71C-200.712 1030.3 -266.54 1008.46 -306.972 1014.77C-385.26 1027.45 -363.743 1139.45 -352.337 1200.04C-349.464 1214.79 -347.274 1226.33 -347.187 1233.3L-344.387 1233.67C-344.696 1226.4 -346.883 1214.86 -349.756 1200.11C-361.149 1140.68 -382.329 1029.71 -305.647 1017.71C-266.074 1011.38 -200.784 1033.06 -148.658 1050.61C-131.282 1056.46 -114.987 1061.98 -100.862 1065.71C4.61486 1095.6 327.004 1172.23 422.078 1136.05C422.72 1135.77 423.36 1135.5 424.002 1135.23C468.355 1115.95 447.269 1054.81 426.534 995.846ZM418.165 1183.29C464.426 1162.04 429.477 1092.38 395.637 1025.36C366.753 967.924 336.879 908.57 360.518 882.924C373.982 868.619 402.421 865.474 448.191 873.258C668.322 911.221 838.703 915.432 983.949 886.712C1158.24 852.245 1302.48 769.026 1425.07 631.905C1460.78 591.77 1473.71 535.619 1485.92 481.335C1500.37 417.524 1514 357.178 1563.75 330.937L1562.44 329.157C1511.73 355.81 1497.99 416.587 1483.44 480.832C1471.02 534.818 1458.4 590.835 1422.8 630.536C1300.62 767.086 1156.71 850.171 982.957 884.796C838.033 913.38 667.974 909.032 448.379 871.23C401.532 863.124 372.131 866.681 358.244 881.554C333.759 908.341 362.424 965.482 393.174 1026.02C426.357 1092.15 460.752 1160.49 416.634 1181.22C369.307 1203.31 233.806 1178.41 157.513 1161.8C40.5944 1136.39 -69.2395 1101.72 -113.118 1082.23C-155.157 1063.5 -257.369 1028.32 -306.037 1037.74C-384.717 1053.32 -347.179 1191.61 -333.09 1243.27C-331.515 1248.83 -330.056 1253.67 -329.371 1256.88L-326.47 1256.82C-327.375 1253.31 -328.614 1248.77 -330.189 1243.2C-344.059 1191.84 -381.144 1055.3 -304.929 1040.39C-261.304 1031.56 -167.227 1060.85 -114.268 1084.66C-21.5435 1125.83 330.204 1221.13 416.458 1184.41C416.881 1183.84 417.523 1183.56 418.165 1183.29Z" fill="white"/>
</mask>
<g mask="url(#mask0_151_532)">
<path d="M-1137.41 103.55L141.706 1872.37L2078.06 1045.47L798.948 -723.354L-1137.41 103.55Z" fill="url(#paint0_linear_151_532)" fill-opacity="0.6"/>
</g>
<defs>
<linearGradient id="paint0_linear_151_532" x1="-280.924" y1="1084.72" x2="1188.24" y2="204.796" gradientUnits="userSpaceOnUse">
<stop stop-color="#BC2525" stop-opacity="0"/>
<stop offset="1" stop-color="#1F9D96"/>
</linearGradient>
</defs>
</svg>
