<svg width="42" height="42" viewBox="0 0 42 42" fill="none" xmlns="http://www.w3.org/2000/svg">
<g id="pepicons-print:menu">
<g id="Group">
<path id="Vector" opacity="0.2" fill-rule="evenodd" clip-rule="evenodd" d="M36.75 22.68C36.75 23.2369 36.5288 23.7711 36.1349 24.1649C35.7411 24.5587 35.207 24.78 34.65 24.78H13.0032C12.4462 24.78 11.9121 24.5587 11.5183 24.1649C11.1245 23.7711 10.9032 23.2369 10.9032 22.68C10.9032 22.123 11.1245 21.5889 11.5183 21.1951C11.9121 20.8012 12.4462 20.58 13.0032 20.58H34.65C35.207 20.58 35.7411 20.8012 36.1349 21.1951C36.5288 21.5889 36.75 22.123 36.75 22.68ZM36.75 31.08C36.75 31.6369 36.5288 32.1711 36.1349 32.5649C35.7411 32.9587 35.207 33.18 34.65 33.18H5.25C4.69305 33.18 4.1589 32.9587 3.76508 32.5649C3.37125 32.1711 3.15 31.6369 3.15 31.08C3.15 30.523 3.37125 29.9889 3.76508 29.5951C4.1589 29.2012 4.69305 28.98 5.25 28.98H34.65C35.207 28.98 35.7411 29.2012 36.1349 29.5951C36.5288 29.9889 36.75 30.523 36.75 31.08ZM36.75 14.28C36.75 14.8369 36.5288 15.3711 36.1349 15.7649C35.7411 16.1587 35.207 16.38 34.65 16.38H5.25C4.69305 16.38 4.1589 16.1587 3.76508 15.7649C3.37125 15.3711 3.15 14.8369 3.15 14.28C3.15 13.723 3.37125 13.1889 3.76508 12.7951C4.1589 12.4012 4.69305 12.18 5.25 12.18H34.65C35.207 12.18 35.7411 12.4012 36.1349 12.7951C36.5288 13.1889 36.75 13.723 36.75 14.28ZM36.75 5.87999C36.75 6.43694 36.5288 6.97109 36.1349 7.36491C35.7411 7.75874 35.207 7.97999 34.65 7.97999H13.0032C12.4462 7.97999 11.9121 7.75874 11.5183 7.36491C11.1245 6.97109 10.9032 6.43694 10.9032 5.87999C10.9032 5.32303 11.1245 4.78889 11.5183 4.39507C11.9121 4.00124 12.4462 3.77999 13.0032 3.77999H34.65C35.207 3.77999 35.7411 4.00124 36.1349 4.39507C36.5288 4.78889 36.75 5.32303 36.75 5.87999Z" fill="white"/>
<path id="Vector_2" fill-rule="evenodd" clip-rule="evenodd" d="M37.8 24.15C37.8 24.4285 37.6894 24.6956 37.4924 24.8925C37.2955 25.0894 37.0285 25.2 36.75 25.2H13.0032C12.7247 25.2 12.4576 25.0894 12.2607 24.8925C12.0638 24.6956 11.9532 24.4285 11.9532 24.15C11.9532 23.8715 12.0638 23.6045 12.2607 23.4075C12.4576 23.2106 12.7247 23.1 13.0032 23.1H36.75C37.0285 23.1 37.2955 23.2106 37.4924 23.4075C37.6894 23.6045 37.8 23.8715 37.8 24.15ZM37.8 32.55C37.8 32.8285 37.6894 33.0956 37.4924 33.2925C37.2955 33.4894 37.0285 33.6 36.75 33.6H5.24999C4.97151 33.6 4.70444 33.4894 4.50753 33.2925C4.31061 33.0956 4.19999 32.8285 4.19999 32.55C4.19999 32.2715 4.31061 32.0045 4.50753 31.8075C4.70444 31.6106 4.97151 31.5 5.24999 31.5H36.75C37.0285 31.5 37.2955 31.6106 37.4924 31.8075C37.6894 32.0045 37.8 32.2715 37.8 32.55ZM37.8 15.75C37.8 16.0285 37.6894 16.2956 37.4924 16.4925C37.2955 16.6894 37.0285 16.8 36.75 16.8H5.24999C4.97151 16.8 4.70444 16.6894 4.50753 16.4925C4.31061 16.2956 4.19999 16.0285 4.19999 15.75C4.19999 15.4715 4.31061 15.2045 4.50753 15.0075C4.70444 14.8106 4.97151 14.7 5.24999 14.7H36.75C37.0285 14.7 37.2955 14.8106 37.4924 15.0075C37.6894 15.2045 37.8 15.4715 37.8 15.75ZM37.8 7.35001C37.8 7.62848 37.6894 7.89556 37.4924 8.09247C37.2955 8.28938 37.0285 8.40001 36.75 8.40001H13.0032C12.7247 8.40001 12.4576 8.28938 12.2607 8.09247C12.0638 7.89556 11.9532 7.62848 11.9532 7.35001C11.9532 7.07153 12.0638 6.80446 12.2607 6.60754C12.4576 6.41063 12.7247 6.30001 13.0032 6.30001H36.75C37.0285 6.30001 37.2955 6.41063 37.4924 6.60754C37.6894 6.80446 37.8 7.07153 37.8 7.35001Z" fill="white"/>
</g>
</g>
</svg>
