<svg width="290" height="78" viewBox="0 0 290 78" fill="none" xmlns="http://www.w3.org/2000/svg">
<path d="M26.752 62.64C23.3387 62.64 20.16 62.0853 17.216 60.976C14.3147 59.824 11.776 58.224 9.6 56.176C7.46667 54.0853 5.80267 51.632 4.608 48.816C3.41333 46 2.816 42.928 2.816 39.6C2.816 36.272 3.41333 33.2 4.608 30.384C5.80267 27.568 7.488 25.136 9.664 23.088C11.84 20.9973 14.3787 19.3973 17.28 18.288C20.1813 17.136 23.36 16.56 26.816 16.56C30.4853 16.56 33.8347 17.2 36.864 18.48C39.8933 19.7173 42.4533 21.5733 44.544 24.048L39.168 29.104C37.5467 27.3547 35.7333 26.0533 33.728 25.2C31.7227 24.304 29.5467 23.856 27.2 23.856C24.8533 23.856 22.6987 24.24 20.736 25.008C18.816 25.776 17.1307 26.864 15.68 28.272C14.272 29.68 13.1627 31.344 12.352 33.264C11.584 35.184 11.2 37.296 11.2 39.6C11.2 41.904 11.584 44.016 12.352 45.936C13.1627 47.856 14.272 49.52 15.68 50.928C17.1307 52.336 18.816 53.424 20.736 54.192C22.6987 54.96 24.8533 55.344 27.2 55.344C29.5467 55.344 31.7227 54.9173 33.728 54.064C35.7333 53.168 37.5467 51.824 39.168 50.032L44.544 55.152C42.4533 57.584 39.8933 59.44 36.864 60.72C33.8347 62 30.464 62.64 26.752 62.64ZM65.7955 62.448C62.2968 62.448 59.1822 61.7013 56.4515 60.208C53.7208 58.672 51.5662 56.5813 49.9875 53.936C48.4088 51.2907 47.6195 48.2827 47.6195 44.912C47.6195 41.4987 48.4088 38.4907 49.9875 35.888C51.5662 33.2427 53.7208 31.1733 56.4515 29.68C59.1822 28.1867 62.2968 27.44 65.7955 27.44C69.3368 27.44 72.4728 28.1867 75.2035 29.68C77.9768 31.1733 80.1315 33.2213 81.6675 35.824C83.2462 38.4267 84.0355 41.456 84.0355 44.912C84.0355 48.2827 83.2462 51.2907 81.6675 53.936C80.1315 56.5813 77.9768 58.672 75.2035 60.208C72.4728 61.7013 69.3368 62.448 65.7955 62.448ZM65.7955 55.6C67.7582 55.6 69.5075 55.1733 71.0435 54.32C72.5795 53.4667 73.7742 52.2293 74.6275 50.608C75.5235 48.9867 75.9715 47.088 75.9715 44.912C75.9715 42.6933 75.5235 40.7947 74.6275 39.216C73.7742 37.5947 72.5795 36.3573 71.0435 35.504C69.5075 34.6507 67.7795 34.224 65.8595 34.224C63.8968 34.224 62.1475 34.6507 60.6115 35.504C59.1182 36.3573 57.9235 37.5947 57.0275 39.216C56.1315 40.7947 55.6835 42.6933 55.6835 44.912C55.6835 47.088 56.1315 48.9867 57.0275 50.608C57.9235 52.2293 59.1182 53.4667 60.6115 54.32C62.1475 55.1733 63.8755 55.6 65.7955 55.6ZM111.078 27.44C113.808 27.44 116.24 27.9733 118.374 29.04C120.55 30.1067 122.256 31.7493 123.494 33.968C124.731 36.144 125.35 38.96 125.35 42.416V62H117.35V43.44C117.35 40.4107 116.624 38.1493 115.174 36.656C113.766 35.1627 111.782 34.416 109.222 34.416C107.344 34.416 105.68 34.8 104.23 35.568C102.779 36.336 101.648 37.488 100.838 39.024C100.07 40.5173 99.6855 42.416 99.6855 44.72V62H91.6855V27.824H99.3015V37.04L97.9575 34.224C99.1522 32.048 100.88 30.384 103.142 29.232C105.446 28.0373 108.091 27.44 111.078 27.44ZM148.362 62.448C144.607 62.448 141.706 61.488 139.658 59.568C137.61 57.6053 136.586 54.7253 136.586 50.928V20.272H144.586V50.736C144.586 52.3573 144.991 53.616 145.802 54.512C146.655 55.408 147.829 55.856 149.322 55.856C151.114 55.856 152.607 55.3867 153.802 54.448L156.042 60.144C155.103 60.912 153.951 61.488 152.586 61.872C151.221 62.256 149.813 62.448 148.362 62.448ZM130.954 34.48V28.08H153.738V34.48H130.954ZM183.679 62V55.088L183.231 53.616V41.52C183.231 39.1733 182.527 37.36 181.119 36.08C179.711 34.7573 177.578 34.096 174.719 34.096C172.799 34.096 170.9 34.3947 169.023 34.992C167.188 35.5893 165.631 36.4213 164.351 37.488L161.215 31.664C163.05 30.256 165.226 29.2107 167.743 28.528C170.303 27.8027 172.948 27.44 175.679 27.44C180.628 27.44 184.447 28.6347 187.135 31.024C189.866 33.3707 191.231 37.0187 191.231 41.968V62H183.679ZM172.927 62.448C170.367 62.448 168.127 62.0213 166.207 61.168C164.287 60.272 162.794 59.056 161.727 57.52C160.703 55.9413 160.191 54.1707 160.191 52.208C160.191 50.288 160.639 48.56 161.535 47.024C162.474 45.488 163.988 44.272 166.079 43.376C168.17 42.48 170.943 42.032 174.399 42.032H184.319V47.344H174.975C172.244 47.344 170.41 47.792 169.471 48.688C168.532 49.5413 168.063 50.608 168.063 51.888C168.063 53.3387 168.639 54.4907 169.791 55.344C170.943 56.1973 172.543 56.624 174.591 56.624C176.554 56.624 178.303 56.176 179.839 55.28C181.418 54.384 182.548 53.0613 183.231 51.312L184.575 56.112C183.807 58.1173 182.42 59.6747 180.415 60.784C178.452 61.8933 175.956 62.448 172.927 62.448ZM217.241 62.448C213.657 62.448 210.457 61.7013 207.641 60.208C204.867 58.672 202.691 56.5813 201.113 53.936C199.534 51.2907 198.745 48.2827 198.745 44.912C198.745 41.4987 199.534 38.4907 201.113 35.888C202.691 33.2427 204.867 31.1733 207.641 29.68C210.457 28.1867 213.657 27.44 217.241 27.44C220.569 27.44 223.491 28.1227 226.009 29.488C228.569 30.8107 230.51 32.7733 231.833 35.376L225.689 38.96C224.665 37.3387 223.406 36.144 221.913 35.376C220.462 34.608 218.883 34.224 217.177 34.224C215.214 34.224 213.443 34.6507 211.865 35.504C210.286 36.3573 209.049 37.5947 208.153 39.216C207.257 40.7947 206.809 42.6933 206.809 44.912C206.809 47.1307 207.257 49.0507 208.153 50.672C209.049 52.2507 210.286 53.4667 211.865 54.32C213.443 55.1733 215.214 55.6 217.177 55.6C218.883 55.6 220.462 55.216 221.913 54.448C223.406 53.68 224.665 52.4853 225.689 50.864L231.833 54.448C230.51 57.008 228.569 58.992 226.009 60.4C223.491 61.7653 220.569 62.448 217.241 62.448ZM252.05 62.448C248.295 62.448 245.394 61.488 243.345 59.568C241.298 57.6053 240.274 54.7253 240.274 50.928V20.272H248.274V50.736C248.274 52.3573 248.679 53.616 249.49 54.512C250.343 55.408 251.516 55.856 253.01 55.856C254.802 55.856 256.295 55.3867 257.49 54.448L259.73 60.144C258.791 60.912 257.639 61.488 256.274 61.872C254.908 62.256 253.5 62.448 252.05 62.448ZM234.642 34.48V28.08H257.426V34.48H234.642Z" fill="white"/>
<rect x="278" y="50" width="12" height="12" fill="#1F9D96"/>
</svg>
