<svg width="125" height="26" viewBox="0 0 125 26" fill="none" xmlns="http://www.w3.org/2000/svg">
<path d="M6.35938 26H5.23438V0.125H6.35938V26ZM4.10938 26H2.98438V0.125H4.10938V26ZM1.85938 26H0.734375V0.125H1.85938V26ZM8.60938 20.375H20.5781V21.5H8.60938V22.625H20.5781V23.75H8.60938V24.875H20.5781V26H7.48438V0.125H20.5781V1.25H8.60938V2.375H20.5781V3.5H8.60938V4.625H20.5781V5.75H8.60938V10.25H14.75V11.375H8.60938V12.5H14.75V13.625H8.60938V14.75H14.75V15.875H8.60938V20.375ZM23.3594 0.125H24.4844V26H23.3594V0.125ZM30.1094 0.125H31.2344V20.375H40.2344V21.5H31.2344V22.625H40.2344V23.75H31.2344V24.875H40.2344V26H30.1094V0.125ZM27.8594 0.125H28.9844V26H27.8594V0.125ZM25.6094 0.125H26.7344V26H25.6094V0.125ZM49.4844 19.25V6.875C49.4844 6.875 52.0417 6.875 57.1562 6.875C58.3958 6.875 59.4583 7.48438 60.3438 8.70312C61.2396 9.91146 61.6875 11.3646 61.6875 13.0625C61.6875 14.7708 61.2396 16.2292 60.3438 17.4375C59.4583 18.6458 58.3958 19.25 57.1562 19.25H49.4844ZM50.6094 18.125H57.1562C58.0833 18.125 58.875 17.6302 59.5312 16.6406C60.1979 15.651 60.5312 14.4583 60.5312 13.0625C60.5312 11.6562 60.1979 10.4635 59.5312 9.48438C58.875 8.49479 58.0833 8 57.1562 8H50.6094V18.125ZM48.3594 20.375H57.1562C58.7083 20.375 60.0417 19.6615 61.1562 18.2344C62.2812 16.7969 62.8438 15.0729 62.8438 13.0625C62.8438 11.7396 62.5833 10.5156 62.0625 9.39062C61.5521 8.26562 60.8594 7.38021 59.9844 6.73438C59.1198 6.07812 58.1771 5.75 57.1562 5.75H48.3594V20.375ZM47.2344 21.5V4.625H57.1562C58.375 4.625 59.5104 5 60.5625 5.75C61.6146 6.5 62.4479 7.52604 63.0625 8.82812C63.6875 10.1198 64 11.5312 64 13.0625C64 14.5833 63.6875 15.9948 63.0625 17.2969C62.4479 18.599 61.6146 19.625 60.5625 20.375C59.5104 21.125 58.375 21.5 57.1562 21.5H47.2344ZM46.1094 22.625H57.1562C58.5833 22.625 59.9062 22.1979 61.125 21.3438C62.3542 20.4896 63.3333 19.3281 64.0625 17.8594C64.7917 16.3906 65.1562 14.7917 65.1562 13.0625C65.1562 11.3438 64.7917 9.75 64.0625 8.28125C63.3333 6.80208 62.3542 5.63542 61.125 4.78125C59.8958 3.92708 58.5729 3.5 57.1562 3.5H46.1094V22.625ZM44.9844 23.75V2.375H57.1562C58.7812 2.375 60.2969 2.85417 61.7031 3.8125C63.1094 4.76042 64.2292 6.05729 65.0625 7.70312C65.8958 9.34896 66.3125 11.1354 66.3125 13.0625C66.3125 14.9896 65.8958 16.776 65.0625 18.4219C64.2292 20.0677 63.1094 21.3698 61.7031 22.3281C60.2969 23.276 58.7812 23.75 57.1562 23.75H44.9844ZM43.8594 24.875H57.1562C58.5208 24.875 59.8385 24.5625 61.1094 23.9375C62.3802 23.3125 63.4792 22.474 64.4062 21.4219C65.3333 20.3698 66.0729 19.1146 66.625 17.6562C67.1875 16.1875 67.4688 14.6562 67.4688 13.0625C67.4688 11.4688 67.1875 9.94271 66.625 8.48438C66.0729 7.02604 65.3333 5.77083 64.4062 4.71875C63.4792 3.65625 62.3802 2.8125 61.1094 2.1875C59.8385 1.5625 58.5208 1.25 57.1562 1.25H43.8594V24.875ZM57.1562 26H42.7344V0.125H57.1562C59.1875 0.125 61.0833 0.703125 62.8438 1.85938C64.6042 3.01562 66.0052 4.58854 67.0469 6.57812C68.099 8.56771 68.625 10.7292 68.625 13.0625C68.625 14.8125 68.3125 16.4896 67.6875 18.0938C67.0729 19.6875 66.25 21.0625 65.2188 22.2188C64.1875 23.375 62.9635 24.2969 61.5469 24.9844C60.1406 25.6615 58.6771 26 57.1562 26ZM80.6562 18.4062L81.1094 17.2812H84.9531L85.4062 18.4062H80.6562ZM79.7812 20.6562L80.2188 19.5312H85.8281L86.3125 20.6562H79.7812ZM78.9062 22.9062L79.3438 21.7812H86.7188L87.1875 22.9062H78.9062ZM69.7656 26H68.5469L78.7812 0.125H80L90.2188 26H89.0156L79.3906 1.64062L69.7656 26ZM79.5312 4.3125L80.1719 5.75L72.1719 26H70.9688L79.5312 4.3125ZM80.7812 7.28125L81.375 8.82812L74.6094 26H73.3906L80.7812 7.28125ZM81.9688 10.375L82.5625 11.9531L77.0156 26H75.8125L81.9688 10.375ZM97.4844 26H96.2656L86.0469 0.125H87.25L97.4844 26ZM84.8281 0.125L95.0625 26H93.8594L83.625 0.125H84.8281ZM82.4062 0.125L92.6406 26H91.4219L81.2031 0.125H82.4062ZM107.953 13.125H114.734C115.766 13.125 116.635 12.7917 117.344 12.125C118.062 11.4583 118.422 10.5104 118.422 9.28125C118.422 8.375 118.047 7.5625 117.297 6.84375C116.547 6.11458 115.693 5.75 114.734 5.75H105.078V26H103.953V4.625H114.734C116.005 4.625 117.125 5.09896 118.094 6.04688C119.062 6.98438 119.547 8.0625 119.547 9.28125C119.547 10.7812 119.078 11.9844 118.141 12.8906C117.203 13.7969 116.068 14.25 114.734 14.25H107.953V13.125ZM107.953 15.375H114.734C116.359 15.375 117.755 14.8073 118.922 13.6719C120.089 12.526 120.672 11.0625 120.672 9.28125C120.672 7.75 120.073 6.40625 118.875 5.25C117.688 4.08333 116.307 3.5 114.734 3.5H102.828V26H101.703V2.375H114.734C115.974 2.375 117.135 2.69271 118.219 3.32812C119.312 3.96354 120.182 4.81771 120.828 5.89062C121.474 6.95312 121.797 8.08333 121.797 9.28125C121.797 11.3333 121.099 13.0521 119.703 14.4375C118.318 15.8125 116.661 16.5 114.734 16.5H107.953V15.375ZM107.953 17.625H114.734C116.193 17.625 117.547 17.2656 118.797 16.5469C120.047 15.8281 121.047 14.8281 121.797 13.5469C122.547 12.2552 122.922 10.8333 122.922 9.28125C122.922 7.875 122.547 6.55729 121.797 5.32812C121.057 4.08854 120.057 3.09896 118.797 2.35938C117.536 1.61979 116.182 1.25 114.734 1.25H100.578V26H99.4531V0.125H114.734C116.37 0.125 117.906 0.546875 119.344 1.39062C120.781 2.22396 121.922 3.34896 122.766 4.76562C123.62 6.17188 124.047 7.67708 124.047 9.28125C124.047 11.1354 123.646 12.7656 122.844 14.1719C122.052 15.5781 120.974 16.6771 119.609 17.4688L122.516 26H121.328L118.547 18C118.13 18.1667 117.812 18.2812 117.594 18.3438L120.203 26H119.016L116.469 18.6094C116.375 18.6302 116.042 18.6667 115.469 18.7188L117.891 26H116.703L114.312 18.75H113.297L115.578 26H114.391L112.094 18.75H107.953V17.625ZM107.328 26H106.203V6.875H114.734C115.432 6.875 116.031 7.11458 116.531 7.59375C117.042 8.0625 117.297 8.625 117.297 9.28125C117.297 11.0938 116.443 12 114.734 12H107.953V10.875H114.734C115.182 10.875 115.531 10.7604 115.781 10.5312C116.042 10.2917 116.172 9.875 116.172 9.28125C116.172 8.91667 116.031 8.61458 115.75 8.375C115.479 8.125 115.141 8 114.734 8H107.328V26Z" fill="#1F9D96"/>
</svg>
