<svg width="78" height="26" viewBox="0 0 78 26" fill="none" xmlns="http://www.w3.org/2000/svg">
<path d="M0.890625 0.125H2.01562V26H0.890625V0.125ZM7.64062 0.125H8.76562V20.375H17.7656V21.5H8.76562V22.625H17.7656V23.75H8.76562V24.875H17.7656V26H7.64062V0.125ZM5.39062 0.125H6.51562V26H5.39062V0.125ZM3.14062 0.125H4.26562V26H3.14062V0.125ZM31.4375 18.4062L31.8906 17.2812H35.7344L36.1875 18.4062H31.4375ZM30.5625 20.6562L31 19.5312H36.6094L37.0938 20.6562H30.5625ZM29.6875 22.9062L30.125 21.7812H37.5L37.9688 22.9062H29.6875ZM20.5469 26H19.3281L29.5625 0.125H30.7812L41 26H39.7969L30.1719 1.64062L20.5469 26ZM30.3125 4.3125L30.9531 5.75L22.9531 26H21.75L30.3125 4.3125ZM31.5625 7.28125L32.1562 8.82812L25.3906 26H24.1719L31.5625 7.28125ZM32.75 10.375L33.3438 11.9531L27.7969 26H26.5938L32.75 10.375ZM48.2656 26H47.0469L36.8281 0.125H38.0312L48.2656 26ZM35.6094 0.125L45.8438 26H44.6406L34.4062 0.125H35.6094ZM33.1875 0.125L43.4219 26H42.2031L31.9844 0.125H33.1875ZM50.2344 0.125H51.3594V26H50.2344V0.125ZM56.9844 0.125H58.1094V20.375H67.1094V21.5H58.1094V22.625H67.1094V23.75H58.1094V24.875H67.1094V26H56.9844V0.125ZM54.7344 0.125H55.8594V26H54.7344V0.125ZM52.4844 0.125H53.6094V26H52.4844V0.125ZM76.3594 0.125H77.4844V26H76.3594V0.125ZM74.1094 0.125H75.2344V26H74.1094V0.125ZM71.8594 0.125H72.9844V26H71.8594V0.125ZM69.6094 0.125H70.7344V26H69.6094V0.125Z" fill="#1F9D96"/>
</svg>
