<svg width="89" height="94" viewBox="0 0 89 94" fill="none" xmlns="http://www.w3.org/2000/svg">
<path d="M74.6667 4.99998C66.948 4.99998 60.6667 11.2813 60.6667 19C60.6667 21.3426 61.3013 23.5173 62.3187 25.4633L57.1107 31.5393C54.03 29.4467 50.3909 28.3296 46.6667 28.3333C43.218 28.3333 40.0167 29.3413 37.24 30.9746L30.6413 24.376C31.9522 22.0167 32.6486 19.3656 32.6667 16.6666C32.6667 7.65998 25.34 0.333313 16.3333 0.333313C7.32667 0.333313 0 7.65998 0 16.6666C0 25.6733 7.32667 33 16.3333 33C19.138 33 21.7373 32.2253 24.0427 30.9746L30.6413 37.5733C28.932 40.4221 28.0198 43.6778 28 47C28 51.6526 29.7733 55.862 32.5967 59.138L24.7007 67.034L24.8173 67.1507C22.9094 66.1871 20.8041 65.6791 18.6667 65.6666C10.948 65.6666 4.66667 71.948 4.66667 79.6666C4.66667 87.3853 10.948 93.6666 18.6667 93.6666C26.3853 93.6666 32.6667 87.3853 32.6667 79.6666C32.6667 77.4453 32.102 75.378 31.1827 73.516L31.2993 73.6326L40.418 64.514C42.3827 65.214 44.464 65.6666 46.6667 65.6666C56.9613 65.6666 65.3333 57.2946 65.3333 47C65.3133 44.1011 64.6115 41.2475 63.2847 38.67L69.132 31.8473C70.8307 32.5846 72.6973 33 74.6667 33C82.3853 33 88.6667 26.7186 88.6667 19C88.6667 11.2813 82.3853 4.99998 74.6667 4.99998ZM18.6667 84.3333C17.429 84.3333 16.242 83.8417 15.3668 82.9665C14.4917 82.0913 14 80.9043 14 79.6666C14 78.429 14.4917 77.242 15.3668 76.3668C16.242 75.4916 17.429 75 18.6667 75C19.9043 75 21.0913 75.4916 21.9665 76.3668C22.8417 77.242 23.3333 78.429 23.3333 79.6666C23.3333 80.9043 22.8417 82.0913 21.9665 82.9665C21.0913 83.8417 19.9043 84.3333 18.6667 84.3333ZM9.33333 16.6666C9.33333 12.8073 12.474 9.66665 16.3333 9.66665C20.1927 9.66665 23.3333 12.8073 23.3333 16.6666C23.3333 20.526 20.1927 23.6666 16.3333 23.6666C12.474 23.6666 9.33333 20.526 9.33333 16.6666ZM46.6667 56.3333C41.5193 56.3333 37.3333 52.1473 37.3333 47C37.3333 41.8526 41.5193 37.6666 46.6667 37.6666C51.814 37.6666 56 41.8526 56 47C56 52.1473 51.814 56.3333 46.6667 56.3333ZM74.6667 23.6666C73.429 23.6666 72.242 23.175 71.3668 22.2998C70.4917 21.4246 70 20.2377 70 19C70 17.7623 70.4917 16.5753 71.3668 15.7001C72.242 14.825 73.429 14.3333 74.6667 14.3333C75.9044 14.3333 77.0913 14.825 77.9665 15.7001C78.8417 16.5753 79.3333 17.7623 79.3333 19C79.3333 20.2377 78.8417 21.4246 77.9665 22.2998C77.0913 23.175 75.9044 23.6666 74.6667 23.6666Z" fill="#1F9D96"/>
</svg>
